<svg xmlns="http://www.w3.org/2000/svg" viewBox="0 0 1109.84 323.35">
  <defs>
    <style>
      .c87c207d-1665-4010-95bd-ed5f6c94230e, .d4fe33be-1931-470f-b5a5-79914230daf4 {
        fill: #c51315;
      }

      .\35 5c3d595-4858-4113-898b-45f0a3ce174e {
        fill: #fff;
      }

      .d4fe33be-1931-470f-b5a5-79914230daf4 {
        font-size: 104px;
        font-family: Futura-ExtraBold, Futura;
        font-weight: 700;
        letter-spacing: -0.05em;
      }
    </style>
  </defs>
  <title>Ginzinger-Fahrrad</title>
  <g id="b61c1583-6655-452e-892f-81700c042046" data-name="Wir_sind...rot">
    <g id="d1e03e70-4aef-4efa-8c76-04af7901b6bf" data-name="Wirsind...">
      <g>
        <path class="c87c207d-1665-4010-95bd-ed5f6c94230e" d="M195.2,76.46a.6.6,0,0,1-.6-.57l-.7-12.53-7.49,12.8a.61.61,0,0,1-.52.3h-6.57a.59.59,0,0,1-.59-.57L177.41,51a.66.66,0,0,1,.17-.44.59.59,0,0,1,.43-.19h6.74a.61.61,0,0,1,.6.59l.32,14,8.16-14.31a.62.62,0,0,1,.52-.3h5.15a.6.6,0,0,1,.6.57L200.92,65l7.69-14.31a.6.6,0,0,1,.53-.32h6.74a.62.62,0,0,1,.52.3.64.64,0,0,1,0,.6L202.33,76.15a.61.61,0,0,1-.52.31Z" transform="translate(-2.25 -13.39)"/>
        <path class="55c3d595-4858-4113-898b-45f0a3ce174e" d="M215.88,51h0m0,0L201.81,75.86H195.2l-.81-14.42h-.07l-8.43,14.42h-6.57L178,51h6.74l.37,16.07h.07L194.35,51h5.15l.94,16.07h.06L209.14,51h6.74m0-1.2h-6.74a1.19,1.19,0,0,0-1,.63L201.4,62.85l-.7-11.94a1.2,1.2,0,0,0-1.2-1.13h-5.15a1.2,1.2,0,0,0-1,.61l-7.09,12.42L186,51a1.2,1.2,0,0,0-1.2-1.17H178a1.2,1.2,0,0,0-.87.38,1.19,1.19,0,0,0-.32.88l1.31,24.88a1.2,1.2,0,0,0,1.19,1.14h6.57a1.21,1.21,0,0,0,1-.6l6.48-11.08L194,75.92a1.21,1.21,0,0,0,1.2,1.14h6.61a1.21,1.21,0,0,0,1-.61l14-24.82a1.2,1.2,0,0,0-1-1.85Z" transform="translate(-2.25 -13.39)"/>
      </g>
      <g>
        <path class="c87c207d-1665-4010-95bd-ed5f6c94230e" d="M210.76,76.46a.6.6,0,0,1-.47-.23.61.61,0,0,1-.12-.52l4.17-16.93a.61.61,0,0,1,.58-.46h6a.57.57,0,0,1,.47.23.55.55,0,0,1,.11.51L217.34,76a.61.61,0,0,1-.58.46Zm7.93-20.07a3.18,3.18,0,0,1-2.58-1.19,3.36,3.36,0,0,1-.54-2.92,5.22,5.22,0,0,1,4.78-3.83,3.18,3.18,0,0,1,2.58,1.19,3.36,3.36,0,0,1,.54,2.92A5.22,5.22,0,0,1,218.69,56.39Z" transform="translate(-2.25 -13.39)"/>
        <path class="55c3d595-4858-4113-898b-45f0a3ce174e" d="M220.35,49.05a2.56,2.56,0,0,1,2.54,3.37,4.61,4.61,0,0,1-4.2,3.37,2.56,2.56,0,0,1-2.54-3.37,4.61,4.61,0,0,1,4.2-3.37m.57,9.87-4.16,16.94h-6l4.16-16.94h6m-.57-11.07A5.76,5.76,0,0,0,215,52.13a4,4,0,0,0,.65,3.44A3.82,3.82,0,0,0,218.69,57a5.76,5.76,0,0,0,5.36-4.28,4,4,0,0,0-.65-3.44,3.84,3.84,0,0,0-3.05-1.42Zm.57,9.87h-6a1.2,1.2,0,0,0-1.16.91l-4.17,16.94a1.2,1.2,0,0,0,1.17,1.49h6a1.2,1.2,0,0,0,1.16-.92l4.17-16.93a1.2,1.2,0,0,0-1.17-1.49Z" transform="translate(-2.25 -13.39)"/>
      </g>
      <g>
        <path class="c87c207d-1665-4010-95bd-ed5f6c94230e" d="M220.23,76.46a.6.6,0,0,1-.47-.23.58.58,0,0,1-.11-.52l4.16-16.93a.58.58,0,0,1,.58-.45h6a.57.57,0,0,1,.47.23.55.55,0,0,1,.11.51l-.18.75A8.29,8.29,0,0,1,236,58.07h1.15a.6.6,0,0,1,.48.23.61.61,0,0,1,.11.51l-1.42,5.75A.61.61,0,0,1,236,65a.85.85,0,0,1-.22,0,.58.58,0,0,1-.33-.1,3.65,3.65,0,0,0-2.07-.46c-2.59,0-4,1.41-4.85,4.71L226.81,76a.61.61,0,0,1-.58.46Z" transform="translate(-2.25 -13.39)"/>
        <path class="55c3d595-4858-4113-898b-45f0a3ce174e" d="M237.15,58.67h0m0,0-1.41,5.75a4.17,4.17,0,0,0-2.4-.56c-3.34,0-4.71,2.21-5.43,5.17l-1.68,6.83h-6l4.16-16.93h6l-.67,2.73h.07a7.72,7.72,0,0,1,6.21-3h1.15m0-1.2H236a9,9,0,0,0-4.45,1.12,1.53,1.53,0,0,0-.21-.4,1.18,1.18,0,0,0-1-.46h-6a1.19,1.19,0,0,0-1.16.91l-4.17,16.93a1.2,1.2,0,0,0,1.17,1.49h6a1.2,1.2,0,0,0,1.16-.92l1.68-6.83c.75-3,2-4.25,4.27-4.25a3.09,3.09,0,0,1,1.75.36,1.16,1.16,0,0,0,.65.2,1.12,1.12,0,0,0,.44-.09,1.18,1.18,0,0,0,.72-.83L238.3,59a1,1,0,0,0,.06-.36,1.2,1.2,0,0,0-1.2-1.2Z" transform="translate(-2.25 -13.39)"/>
      </g>
      <g>
        <path class="c87c207d-1665-4010-95bd-ed5f6c94230e" d="M251.06,77A11.37,11.37,0,0,1,244.34,75a.58.58,0,0,1-.24-.4.6.6,0,0,1,.11-.45l3.22-4.2a.61.61,0,0,1,.41-.23h.06a.6.6,0,0,1,.39.14,7.07,7.07,0,0,0,4,1.58c.6,0,1.49-.29,1.63-.84,0-.17,0-.22,0-.24-.17-.28-1.06-.49-1.78-.65L251,69.39c-1.75-.5-4-1.57-3.09-5.19,1.09-4.45,5.58-6.44,9.54-6.44A12.36,12.36,0,0,1,263,58.9a.59.59,0,0,1,.31.41.61.61,0,0,1-.11.5l-2.95,3.8a.58.58,0,0,1-.47.24.62.62,0,0,1-.32-.09,5.6,5.6,0,0,0-2.71-.74c-.59,0-1.49.27-1.6.7,0,.11,0,.14,0,.16.19.29,1.1.46,1.54.54l.35.06a5.53,5.53,0,0,1,3.77,2.17,4.57,4.57,0,0,1,.36,3.59C260,75.24,255,77,251.06,77Z" transform="translate(-2.25 -13.39)"/>
        <path class="55c3d595-4858-4113-898b-45f0a3ce174e" d="M257.43,58.36a11.68,11.68,0,0,1,5.3,1.08l-2.94,3.81a6.19,6.19,0,0,0-3-.83c-.7,0-2,.3-2.18,1.16-.28,1.16,1.57,1.32,2.35,1.49,2.67.56,4.45,1.89,3.68,5-1.1,4.46-5.61,6.31-9.55,6.31a10.79,10.79,0,0,1-6.37-2l3.21-4.19A7.68,7.68,0,0,0,252.25,72c.76,0,2-.37,2.21-1.29.33-1.33-1.55-1.39-3.32-1.89s-3.42-1.42-2.67-4.47c1-4.15,5.24-6,9-6m0-1.2c-4.2,0-9,2.13-10.13,6.89-.75,3.06.43,5,3.52,5.91.38.11.77.2,1.14.29a11.72,11.72,0,0,1,1.17.3,1.77,1.77,0,0,1-.88.24,6.4,6.4,0,0,1-3.57-1.44,1.22,1.22,0,0,0-.78-.28h-.12a1.23,1.23,0,0,0-.83.47l-3.21,4.2a1.2,1.2,0,0,0-.24.9,1.23,1.23,0,0,0,.49.8,12,12,0,0,0,7.07,2.17c4.12,0,9.4-1.89,10.71-7.22a5.11,5.11,0,0,0-.43-4.06,6.05,6.05,0,0,0-4.16-2.44l-.36-.07-.62-.12a2,2,0,0,1,.56-.08,5.05,5.05,0,0,1,2.4.65,1.18,1.18,0,0,0,.63.18,1.19,1.19,0,0,0,.95-.47l2.94-3.81a1.23,1.23,0,0,0,.23-1,1.19,1.19,0,0,0-.63-.8,12.84,12.84,0,0,0-5.85-1.21Z" transform="translate(-2.25 -13.39)"/>
      </g>
      <g>
        <path class="c87c207d-1665-4010-95bd-ed5f6c94230e" d="M261.94,76.46a.6.6,0,0,1-.47-.23.58.58,0,0,1-.11-.52l4.16-16.93a.61.61,0,0,1,.58-.46h6a.6.6,0,0,1,.48.23.61.61,0,0,1,.11.51L268.52,76a.6.6,0,0,1-.58.46Zm7.93-20.07a3.18,3.18,0,0,1-2.58-1.19,3.36,3.36,0,0,1-.54-2.92,5.22,5.22,0,0,1,4.78-3.83,3.18,3.18,0,0,1,2.58,1.19,3.36,3.36,0,0,1,.54,2.92A5.22,5.22,0,0,1,269.87,56.39Z" transform="translate(-2.25 -13.39)"/>
        <path class="55c3d595-4858-4113-898b-45f0a3ce174e" d="M271.53,49.05a2.56,2.56,0,0,1,2.54,3.37,4.6,4.6,0,0,1-4.2,3.37,2.56,2.56,0,0,1-2.54-3.37,4.61,4.61,0,0,1,4.2-3.37m.57,9.87-4.16,16.94h-6l4.16-16.94h6m-.57-11.07a5.76,5.76,0,0,0-5.36,4.28,4,4,0,0,0,.65,3.44A3.84,3.84,0,0,0,269.87,57a5.77,5.77,0,0,0,5.37-4.28,4,4,0,0,0-.66-3.44,3.82,3.82,0,0,0-3.05-1.42Zm.57,9.87h-6a1.2,1.2,0,0,0-1.16.91l-4.17,16.94a1.26,1.26,0,0,0,.22,1,1.21,1.21,0,0,0,.95.46h6a1.2,1.2,0,0,0,1.16-.92l4.17-16.93a1.2,1.2,0,0,0-1.17-1.49Z" transform="translate(-2.25 -13.39)"/>
      </g>
      <g>
        <path class="c87c207d-1665-4010-95bd-ed5f6c94230e" d="M283.22,76.46a.61.61,0,0,1-.47-.23.64.64,0,0,1-.11-.52l2.12-8.62c.24-.92.6-2.31.13-2.92a1.52,1.52,0,0,0-1.24-.41c-1.78,0-2.93,1.14-3.5,3.47L278,76a.59.59,0,0,1-.58.46h-6a.6.6,0,0,1-.47-.23.58.58,0,0,1-.11-.52L275,58.78a.6.6,0,0,1,.58-.45h6a.57.57,0,0,1,.47.23.55.55,0,0,1,.11.51l-.07.32a7.87,7.87,0,0,1,5.08-1.63c2.13,0,3.68.6,4.61,1.79,1.05,1.34,1.25,3.36.6,6L289.8,76a.59.59,0,0,1-.58.46Z" transform="translate(-2.25 -13.39)"/>
        <path class="55c3d595-4858-4113-898b-45f0a3ce174e" d="M287.16,58.36c4.55,0,5.66,2.88,4.63,7l-2.57,10.45h-6l2-8.25c.4-1.61,1.36-4.45-1.6-4.45-2.43,0-3.57,1.82-4.08,3.93l-2.16,8.77h-6l4.16-16.93h6L281,61.11h.06a7.56,7.56,0,0,1,6.06-2.75m0-1.2a8.68,8.68,0,0,0-4.55,1.16l-.09-.13a1.18,1.18,0,0,0-.95-.46h-6a1.19,1.19,0,0,0-1.16.91l-4.17,16.93a1.26,1.26,0,0,0,.22,1,1.21,1.21,0,0,0,1,.46h6a1.2,1.2,0,0,0,1.16-.92l2.16-8.77c.66-2.69,2-3,2.92-3a1.14,1.14,0,0,1,.77.18c.28.37-.07,1.75-.24,2.41l-.1.38-2,8.24a1.2,1.2,0,0,0,1.16,1.49h6a1.22,1.22,0,0,0,1.17-.92L293,65.69c.69-2.82.45-5-.72-6.51-1.05-1.34-2.76-2-5.08-2Z" transform="translate(-2.25 -13.39)"/>
      </g>
      <g>
        <path class="c87c207d-1665-4010-95bd-ed5f6c94230e" d="M300.13,77a7,7,0,0,1-5.7-2.56,8.38,8.38,0,0,1-1.2-7.23c1.33-5.4,6.18-9.47,11.28-9.47a6.57,6.57,0,0,1,4.43,1.51l2.69-10.93a.59.59,0,0,1,.58-.46h6a.61.61,0,0,1,.47.23.64.64,0,0,1,.11.52L312.06,76a.61.61,0,0,1-.58.46h-6a.63.63,0,0,1-.48-.23.64.64,0,0,1-.11-.52l0-.11A8.62,8.62,0,0,1,300.13,77Zm4.69-12.88a4.41,4.41,0,0,0-4.24,3.41,2.63,2.63,0,0,0,.29,2.29,2.51,2.51,0,0,0,2.06.79,4.32,4.32,0,0,0,4.23-3.37,2.65,2.65,0,0,0-.32-2.31A2.44,2.44,0,0,0,304.82,64.14Z" transform="translate(-2.25 -13.39)"/>
        <path class="55c3d595-4858-4113-898b-45f0a3ce174e" d="M318.21,48.48l-6.73,27.38h-6l.46-1.87h-.07a7.76,7.76,0,0,1-5.74,2.43c-5,0-7.52-4.17-6.32-9s5.68-9,10.7-9a5.41,5.41,0,0,1,4.73,2.2l3-12.08h6M302.93,71.23a4.92,4.92,0,0,0,4.82-3.83c.51-2.09-.48-3.86-2.93-3.86A5,5,0,0,0,300,67.4c-.53,2.17.49,3.83,2.94,3.83m15.28-24h-6a1.21,1.21,0,0,0-1.17.92l-2.47,10a7.56,7.56,0,0,0-4.06-1.08c-5.37,0-10.47,4.27-11.86,9.93A9,9,0,0,0,294,74.83a7.61,7.61,0,0,0,6.17,2.79,9.35,9.35,0,0,0,4.37-1.07l0,0a1.21,1.21,0,0,0,1,.46h6a1.2,1.2,0,0,0,1.16-.92l6.73-27.37a1.2,1.2,0,0,0-1.16-1.49ZM302.93,70a2,2,0,0,1-1.59-.56,2.1,2.1,0,0,1-.18-1.78,3.81,3.81,0,0,1,3.66-3,1.94,1.94,0,0,1,1.55.58,2.12,2.12,0,0,1,.21,1.8A3.69,3.69,0,0,1,302.93,70Z" transform="translate(-2.25 -13.39)"/>
      </g>
      <g>
        <path class="c87c207d-1665-4010-95bd-ed5f6c94230e" d="M318.27,77.08a3.55,3.55,0,0,1-2.89-1.33,3.79,3.79,0,0,1-.61-3.29,5.83,5.83,0,0,1,5.41-4.32,3.59,3.59,0,0,1,2.9,1.32,3.78,3.78,0,0,1,.6,3.29A5.9,5.9,0,0,1,318.27,77.08Z" transform="translate(-2.25 -13.39)"/>
        <path class="55c3d595-4858-4113-898b-45f0a3ce174e" d="M320.18,68.74a2.92,2.92,0,0,1,2.91,3.87,5.28,5.28,0,0,1-4.82,3.87,2.93,2.93,0,0,1-2.91-3.87,5.23,5.23,0,0,1,4.82-3.87m0-1.2a6.44,6.44,0,0,0-6,4.78,4.41,4.41,0,0,0,.72,3.8,4.13,4.13,0,0,0,3.36,1.56,6.44,6.44,0,0,0,6-4.79,4.4,4.4,0,0,0-.71-3.8,4.16,4.16,0,0,0-3.37-1.55Z" transform="translate(-2.25 -13.39)"/>
      </g>
      <g>
        <path class="c87c207d-1665-4010-95bd-ed5f6c94230e" d="M329.1,77.08a3.57,3.57,0,0,1-2.9-1.33,3.82,3.82,0,0,1-.6-3.29,5.81,5.81,0,0,1,5.4-4.32,3.56,3.56,0,0,1,2.9,1.32,3.75,3.75,0,0,1,.6,3.29A5.9,5.9,0,0,1,329.1,77.08Z" transform="translate(-2.25 -13.39)"/>
        <path class="55c3d595-4858-4113-898b-45f0a3ce174e" d="M331,68.74a2.92,2.92,0,0,1,2.92,3.87,5.28,5.28,0,0,1-4.82,3.87,2.94,2.94,0,0,1-2.92-3.87A5.24,5.24,0,0,1,331,68.74m0-1.2a6.44,6.44,0,0,0-6,4.78,4.4,4.4,0,0,0,.72,3.8,4.14,4.14,0,0,0,3.37,1.56,6.44,6.44,0,0,0,6-4.79,4.39,4.39,0,0,0-.7-3.8A4.19,4.19,0,0,0,331,67.54Z" transform="translate(-2.25 -13.39)"/>
      </g>
      <g>
        <path class="c87c207d-1665-4010-95bd-ed5f6c94230e" d="M339.92,77.08A3.54,3.54,0,0,1,337,75.75a3.79,3.79,0,0,1-.61-3.29,5.82,5.82,0,0,1,5.4-4.32,3.6,3.6,0,0,1,2.91,1.32,3.75,3.75,0,0,1,.59,3.29A5.89,5.89,0,0,1,339.92,77.08Z" transform="translate(-2.25 -13.39)"/>
        <path class="55c3d595-4858-4113-898b-45f0a3ce174e" d="M341.82,68.74a2.92,2.92,0,0,1,2.92,3.87,5.28,5.28,0,0,1-4.82,3.87A2.94,2.94,0,0,1,337,72.61a5.24,5.24,0,0,1,4.82-3.87m0-1.2a6.44,6.44,0,0,0-6,4.78,4.37,4.37,0,0,0,.71,3.8,4.15,4.15,0,0,0,3.37,1.56,6.44,6.44,0,0,0,6-4.79,4.4,4.4,0,0,0-.71-3.8,4.16,4.16,0,0,0-3.38-1.55Z" transform="translate(-2.25 -13.39)"/>
      </g>
    </g>
  </g>
  <g id="a43f8b12-0350-4e35-a1d4-958352bfef13" data-name="Logoschwarz">
    <g>
      <g>
        <path class="55c3d595-4858-4113-898b-45f0a3ce174e" d="M101.19,20.4c28.43-4.73,46.38,7.29,53.2,26.6,2.13,6,2.9,11.26,3.37,19.1-17.11,7.28-17.9,7.3-36.79,14.63C119.63,71,114.7,64.4,110.1,61.33s-12.24-3.8-15-3.41c-25.92,3.58-57,53-41.61,83.89,2.13,4.29,7.31,8.89,12.28,10.24,20.29,5.47,33.45-11,38.6-23.85-9.84,0-25.64.05-25.64.05l8.87-34.18h68.21a117.49,117.49,0,0,1-7.51,24.55c-13.6,32.52-27.9,53.36-54.57,64.12-12.63,5.07-31.37,7.91-47.06,4.09-61.84-15.05-38-101.21-4.78-133C57.77,36.78,74.89,24.78,101.19,20.4Z" transform="translate(-2.25 -13.39)"/>
        <path class="55c3d595-4858-4113-898b-45f0a3ce174e" d="M100.2,14.48h0C75.52,18.59,56.79,29.1,37.61,49.57,18.37,68.06,2.25,103.27,2.25,134.48a75.85,75.85,0,0,0,2.44,19.65c5.39,20.07,19.4,33.4,40.51,38.53,18.33,4.46,38.77.44,50.72-4.35,29.65-12,44.57-35.59,57.87-67.37a123,123,0,0,0,7.86-25.75,6,6,0,0,0-5.89-7.12H87.55a6,6,0,0,0-5.81,4.49l-8.87,34.19a6,6,0,0,0,5.83,7.5l15.65,0c-4.86,7.24-13.65,15.65-27.07,12a15.91,15.91,0,0,1-8.47-7.11c-5.91-11.86-4.16-28.93,4.67-45.67,8.43-16,21.75-28.14,32.39-29.61,1.82-.25,7.83.42,10.9,2.46,3.28,2.19,7.18,7.34,8.26,15.23a6,6,0,0,0,8.11,4.78l12.2-4.7c8.43-3.23,12.28-4.7,24.77-10a6,6,0,0,0,3.64-5.88c-.47-7.82-1.22-13.72-3.7-20.74C151.59,21.06,129.22,9.65,100.2,14.48ZM148.73,49a50.35,50.35,0,0,1,2.72,13.26c-9.25,3.9-13.07,5.36-20.39,8.16l-5.84,2.25c-2.33-7-6.49-12.8-11.8-16.33-5.94-4-15-5-19.19-4.37-14.69,2-30.92,16.12-41.36,35.9-10.79,20.45-12.54,41.09-4.8,56.62,3,6,9.76,11.64,16.08,13.35,23.11,6.23,39.08-10.86,45.74-27.4a6,6,0,0,0-5.57-8.24l-17.88,0c2-7.61,4.44-17.11,5.75-22.17h56.09a125.12,125.12,0,0,1-5.59,16.32c-12.45,29.75-25.38,50.34-51.25,60.79-11.1,4.45-28.83,7.37-43.4,3.82-16.83-4.09-27.52-14.18-31.76-30a63.67,63.67,0,0,1-2.05-16.6c0-27.73,14.75-60,31.77-76.25l.23-.24C63.74,39.17,80,30,102.17,26.32,125.65,22.41,142.19,30.47,148.73,49Zm-111.27.73.15-.16a.3.3,0,0,0,.08-.08Z" transform="translate(-2.25 -13.39)"/>
        <path d="M388.22,30.61c31.25-1.13,20.21,49.64-4.09,53.88C349.38,90.52,357.33,31.69,388.22,30.61Z" transform="translate(-2.25 -13.39)"/>
        <path class="55c3d595-4858-4113-898b-45f0a3ce174e" d="M388,24.61C376,25,365.66,32.46,359.72,45a44.74,44.74,0,0,0-4.39,19c0,7,1.85,13.46,5.52,18.29,5.37,7.06,14,10,24.3,8.17,18.05-3.15,29.89-26.11,28-43.76C411.71,32.55,402.06,24.1,388,24.61ZM370.41,75c-4.15-5.46-4.09-15.91.15-24.85,1.87-3.94,7.36-13.15,17.87-13.52h0c2.86-.1,11.59-.42,12.81,11.29,1.28,12.17-6.85,28.72-18.16,30.69C377.27,79.59,373,78.38,370.41,75ZM388,24.61h0Z" transform="translate(-2.25 -13.39)"/>
        <polygon points="434.5 161.16 409.3 161.16 400.71 131.15 390.83 161.3 363.55 161.24 390.34 80.65 417.06 80.68 425.35 111.09 435.42 80.68 461.27 80.68 434.5 161.16"/>
        <path class="55c3d595-4858-4113-898b-45f0a3ce174e" d="M386.89,92.15,360.1,172.74a6,6,0,0,0,5.68,7.9l27.29.05a6,6,0,0,0,5.71-4.13L402.57,165c1.51,5.25,3.21,11.21,3.21,11.21a6,6,0,0,0,5.77,4.35h25.2a6,6,0,0,0,5.69-4.11L469.21,96a6,6,0,0,0-5.69-7.89H437.67a6,6,0,0,0-5.7,4.11s-2,6.1-3.81,11.53c-1.43-5.22-3.06-11.21-3.06-11.21a6,6,0,0,0-5.78-4.43l-26.73,0A6,6,0,0,0,386.89,92.15Zm10,7.9,17.81,0,7.09,26a6,6,0,0,0,11.49.31s6.67-20.15,8.7-26.3h13.2c-4,12.11-20.58,61.85-22.78,68.48H416.07l-7.34-25.66a6,6,0,0,0-11.47-.22s-6.51,19.85-8.52,26l-14.63,0Z" transform="translate(-2.25 -13.39)"/>
        <polygon points="381.6 80.19 346.74 185.29 320.25 185.23 355.26 80.19 381.6 80.19"/>
        <path class="55c3d595-4858-4113-898b-45f0a3ce174e" d="M357.51,87.58a6,6,0,0,0-5.69,4.1l-35,105a6,6,0,0,0,5.68,7.9l26.49.06a6,6,0,0,0,5.71-4.11l34.86-105.1a6,6,0,0,0-5.7-7.89Zm18,12c-4.28,12.92-28.55,86.07-30.87,93.09l-13.85,0c4.31-12.91,28.7-86.08,31-93.06Z" transform="translate(-2.25 -13.39)"/>
        <polygon class="55c3d595-4858-4113-898b-45f0a3ce174e" points="165.12 80.68 190.77 80.62 165.53 156.14 138.25 156.11 165.12 80.68"/>
        <path class="55c3d595-4858-4113-898b-45f0a3ce174e" d="M193,88l-25.65.06a6,6,0,0,0-5.64,4l-26.88,75.44a6,6,0,0,0,5.65,8l27.28,0a6,6,0,0,0,5.7-4.1l25.24-75.52A6,6,0,0,0,193,88Zm-8.33,12c-4,11.92-19,57-21.22,63.5l-14.46,0,22.61-63.45Z" transform="translate(-2.25 -13.39)"/>
        <polygon points="244.52 156.31 219.57 156.31 210.32 124.33 199.79 156.23 174.96 156.23 199.93 80.68 225.03 80.62 234.3 114.1 245.35 80.54 269.72 80.54 244.52 156.31"/>
        <path class="55c3d595-4858-4113-898b-45f0a3ce174e" d="M247.6,87.93a6,6,0,0,0-5.7,4.13l-4.85,14.74c-2-7-4-14.39-4-14.39a6,6,0,0,0-5.8-4.4l-25.09.06a6,6,0,0,0-5.69,4.11l-25,75.55a6,6,0,0,0,5.7,7.89H202a6,6,0,0,0,5.7-4.12L212.19,158c1.88,6.49,3.86,13.36,3.86,13.36a6,6,0,0,0,5.77,4.33h25a6,6,0,0,0,5.7-4.11l25.19-75.76a6,6,0,0,0-5.69-7.9Zm16,12c-4,11.9-19,57.23-21.2,63.77H226.33c-1.87-6.48-8-27.64-8-27.64a6,6,0,0,0-11.46-.22s-7.12,21.53-9.18,27.78H185.51l21-63.56,16.19,0c1.85,6.65,8.06,29.07,8.06,29.07a6,6,0,0,0,11.48.28l9.69-29.44Z" transform="translate(-2.25 -13.39)"/>
        <polygon class="55c3d595-4858-4113-898b-45f0a3ce174e" points="318.47 156.14 326.69 131.79 304.23 131.77 349.19 80.62 282.48 80.68 273.97 105.92 293.94 105.91 251.89 156.14 318.47 156.14"/>
        <path class="55c3d595-4858-4113-898b-45f0a3ce174e" d="M351.43,88l-66.7.06a6,6,0,0,0-5.68,4.08l-8.52,25.25a6,6,0,0,0,.82,5.42,6,6,0,0,0,4.87,2.49h7.12l-33.8,40.37a6,6,0,0,0-1.4,3.86,6,6,0,0,0,6,6h66.58a6,6,0,0,0,5.69-4.09l8.21-24.35a6,6,0,0,0-5.68-7.92h-9.21L355.94,98a6,6,0,0,0-4.51-10Zm-13.26,12L302,141.2a6,6,0,0,0,4.5,10l14.11,0c-1.83,5.42-3,8.91-4.17,12.36H267l33.8-40.38a6,6,0,0,0-4.6-9.85H284.58L289,100.06Z" transform="translate(-2.25 -13.39)"/>
        <polygon points="558.88 80.65 605.34 80.65 599 100.59 578.03 100.64 574.79 110.24 595.32 110.23 590.16 125.69 569.69 125.72 566.55 135.25 587.23 135.24 580.19 156.14 533.74 156.14 558.88 80.65"/>
        <path class="55c3d595-4858-4113-898b-45f0a3ce174e" d="M561.12,88a6,6,0,0,0-5.69,4.11l-25.14,75.48a6,6,0,0,0,5.7,7.9h46.45a6,6,0,0,0,5.69-4.09l7-20.89a6,6,0,0,0-.81-5.42c-.09-.11-.2-.2-.29-.31a6,6,0,0,0,4-3.84l5.16-15.46a6.2,6.2,0,0,0,.31-1.9,6,6,0,0,0-1.14-3.51c-.07-.1-.18-.18-.26-.28a5.94,5.94,0,0,0,4.79-4l6.35-19.94a6,6,0,0,0,.28-1.82,6,6,0,0,0-6-6Zm38.26,12c-1.2,3.79-1.69,5.32-2.53,7.95l-16.58,0a6,6,0,0,0-5.67,4.08l-3.24,9.61a6,6,0,0,0,5.69,7.92h12.19l-1.16,3.46-16.15,0a6,6,0,0,0-5.69,4.12l-3.14,9.53a6.06,6.06,0,0,0-.3,1.88,6,6,0,0,0,6,6h12.32c-1.41,4.18-2,6.09-3,8.89H544.31c4-11.89,19-57,21.14-63.49Z" transform="translate(-2.25 -13.39)"/>
        <path d="M543.93,113.4c.44-14.73-14.38-23.2-30.18-22.74-24.82.72-51.92,14.57-56.68,49.11-2.31,58.17,62.82,31.53,77.83,6.82,4-6.54,7.12-13.25,7.78-19.9h-42.3L495,144.5h7.86a8.26,8.26,0,0,1-3.41,3.54c-22.15,11.42-13.64-28.44,5.45-30.77,4.25-.53,9,2.24,10.77,4.36A278.38,278.38,0,0,1,543.93,113.4Z" transform="translate(-2.25 -13.39)"/>
        <path class="55c3d595-4858-4113-898b-45f0a3ce174e" d="M513.58,84.66c-14.69.42-28.64,5.07-39.3,13.08-12.75,9.58-20.76,23.83-23.16,41.21,0,.19,0,.38-.05.58-1.13,28.47,13.15,37.07,21.76,39.66,22.05,6.65,55.94-10.95,67.19-29.49,5.22-8.58,8-15.7,8.63-22.41a6,6,0,0,0-6-6.6h-3.44c2-.52,4-1,5.94-1.42a6,6,0,0,0,4.74-5.69c0-.28,0-.55,0-.83a24.9,24.9,0,0,0-7.48-17.93C535.77,88.13,525,84.33,513.58,84.66Zm.34,12c8.16-.23,15.65,2.25,20.05,6.65a13.3,13.3,0,0,1,3.32,5.5c-8,2-16,4.59-20.38,6-3.31-2.28-8-4.14-12.77-3.54-11.51,1.4-19.66,12.27-22.63,22.42-2.49,8.54-1.21,15.92,3.43,19.75,3,2.46,8.4,4.44,17.24-.11a14.21,14.21,0,0,0,6.13-6.42,6.09,6.09,0,0,0,.53-2.46,6,6,0,0,0-5.78-6c.87-2.87,1.13-3.71,1.77-5.83h30.25a59.66,59.66,0,0,1-5.31,10.79c-8.85,14.57-36.91,29.22-53.47,24.23-8.83-2.66-13.29-11.05-13.29-24.94,0-.79,0-1.6.05-2.42C467.49,109.1,492.21,97.28,513.92,96.65Z" transform="translate(-2.25 -13.39)"/>
        <path class="55c3d595-4858-4113-898b-45f0a3ce174e" d="M651,94.3H616.94l-25.05,75.27h24.24l7.53-22.26,3.24,22.28,24.68-.08-6.82-27.87s12.07-2.33,17.78-8.85C675.32,115.5,668.84,95,651,94.3Zm-11.88,31.45c-1.86.83-4.78.7-8.8.7,1.68-4.83,2.36-7.17,4.32-12C646.42,113.22,644.9,122.15,639.14,125.75Z" transform="translate(-2.25 -13.39)"/>
        <path class="55c3d595-4858-4113-898b-45f0a3ce174e" d="M611.24,92.4l-25,75.27a6,6,0,0,0,5.69,7.89h24.24a6,6,0,0,0,5.38-3.5,6,6,0,0,0,5.41,3.52l24.68-.08a6,6,0,0,0,6-6,5.74,5.74,0,0,0-.17-1.42s-3.67-15-5.43-22.22c4.67-1.58,10.95-4.41,15.08-9.13.11-.13.21-.25.31-.39A38.08,38.08,0,0,0,675.23,114a27.88,27.88,0,0,0-2.67-12.11c-4-8.27-11.74-13.21-21.31-13.57H616.94A6,6,0,0,0,611.24,92.4Zm10,7.89h29.57c6.45.26,9.5,3.83,10.92,6.77a16,16,0,0,1,1.5,7A26,26,0,0,1,657.86,129c-3.6,3.94-11.47,6.22-14.25,6.76a6,6,0,0,0-3.9,2.66,6.08,6.08,0,0,0-1,3.24,6.2,6.2,0,0,0,.17,1.42s3.06,12.48,5,20.47l-11.85,0c-.89-6.09-2.49-17.13-2.49-17.13A6,6,0,0,0,618,145.37l-6.15,18.19H600.21C604.17,151.68,619.09,106.82,621.26,100.29Z" transform="translate(-2.25 -13.39)"/>
        <path class="55c3d595-4858-4113-898b-45f0a3ce174e" d="M634.05,108.45a6,6,0,0,0-4.95,3.72c-1.51,3.73-2.29,6-3.27,8.94l-1.16,3.37a6,6,0,0,0,5.67,8h1.48c3.89,0,7,0,9.76-1.22a5.22,5.22,0,0,0,.74-.39c5.67-3.54,8.46-10,6.65-15.24C648.1,113.08,644.92,107.34,634.05,108.45Z" transform="translate(-2.25 -13.39)"/>
      </g>
      <g>
        <path d="M101.19,20.4c28.43-4.73,46.38,7.29,53.2,26.6,2.13,6,2.9,11.26,3.37,19.1-17.11,7.28-17.9,7.3-36.79,14.63C119.63,71,114.7,64.4,110.1,61.33s-12.24-3.8-15-3.41c-25.92,3.58-57,53-41.61,83.89,2.13,4.29,7.31,8.89,12.28,10.24,20.29,5.47,33.45-11,38.6-23.85-9.84,0-25.64.05-25.64.05l8.87-34.18h68.21a117.49,117.49,0,0,1-7.51,24.55c-13.6,32.52-27.9,53.36-54.57,64.12-12.63,5.07-31.37,7.91-47.06,4.09-61.84-15.05-38-101.21-4.78-133C57.77,36.78,74.89,24.78,101.19,20.4Z" transform="translate(-2.25 -13.39)"/>
        <path class="c87c207d-1665-4010-95bd-ed5f6c94230e" d="M388.22,30.61c31.25-1.13,20.21,49.64-4.09,53.88C349.38,90.52,357.33,31.69,388.22,30.61Z" transform="translate(-2.25 -13.39)"/>
        <polygon class="c87c207d-1665-4010-95bd-ed5f6c94230e" points="434.5 161.16 409.3 161.16 400.71 131.15 390.83 161.3 363.55 161.24 390.34 80.65 417.06 80.65 425.35 111.09 435.42 80.68 461.27 80.68 434.5 161.16"/>
        <polygon class="c87c207d-1665-4010-95bd-ed5f6c94230e" points="381.6 80.19 346.74 185.29 320.25 185.23 355.26 80.19 381.6 80.19"/>
        <polygon points="165.12 80.65 190.77 80.62 165.53 156.14 138.25 156.11 165.12 80.65"/>
        <polygon points="244.52 156.31 219.57 156.31 210.32 124.33 199.79 156.23 174.96 156.23 199.93 80.65 225.03 80.62 234.3 114.1 245.35 80.54 269.72 80.54 244.52 156.31"/>
        <polygon points="318.47 156.14 326.69 131.79 304.23 131.77 349.19 80.62 282.48 80.65 273.97 105.92 293.94 105.91 251.89 156.14 318.47 156.14"/>
        <polygon points="558.88 80.65 605.34 80.65 599 100.59 578.03 100.64 574.79 110.24 595.32 110.23 590.16 125.69 569.69 125.72 566.55 135.25 587.23 135.24 580.19 156.14 533.74 156.14 558.88 80.65"/>
        <path d="M543.93,113.4c.44-14.73-14.38-23.2-30.18-22.74-24.82.72-51.92,14.57-56.68,49.11-2.31,58.17,62.82,31.53,77.83,6.82,4-6.54,7.12-13.25,7.78-19.9h-42.3L495,144.5h7.86a8.26,8.26,0,0,1-3.41,3.54c-22.15,11.42-13.64-28.44,5.45-30.77,4.25-.53,9,2.24,10.77,4.36A278.38,278.38,0,0,1,543.93,113.4Z" transform="translate(-2.25 -13.39)"/>
        <path d="M651,94.3H616.94l-25.05,75.27h24.24l7.53-22.26,3.24,22.28h24.68l-6.82-28s12.07-2.33,17.78-8.85C675.32,115.5,668.84,95,651,94.3Zm-11.88,31.45c-1.86.83-4.78.7-8.8.7,1.68-4.83,2.36-7.17,4.32-12C646.42,113.22,644.9,122.15,639.14,125.75Z" transform="translate(-2.25 -13.39)"/>
      </g>
    </g>
  </g>
  <g id="b333a956-5aef-4d48-8c81-fa8eac0319ec" data-name="Hinweise">
    <text x="-2.25" y="-13.39"></text>
    <text class="d4fe33be-1931-470f-b5a5-79914230daf4" transform="matrix(0.98, 0, -0.31, 0.95, 665.05, 156.14)">Fahrrad</text>
  </g>
</svg>
