<?xml version="1.0" encoding="utf-8"?>
<!-- Generator: Adobe Illustrator 22.1.0, SVG Export Plug-In . SVG Version: 6.00 Build 0)  -->
<svg version="1.1" xmlns="http://www.w3.org/2000/svg" xmlns:xlink="http://www.w3.org/1999/xlink" x="0px" y="0px"
	 viewBox="0 0 1119.2 212.9" enable-background="new 0 0 1119.2 212.9" xml:space="preserve">
<g id="HINTER" display="none">
	<rect x="-32.2" y="-8.2" stroke="#FFFFFF" stroke-width="2" width="1759.9" height="300.8"/>
</g>
<g id="Wir_x5F_sind...weiss" display="none">
	<path display="inline" fill="#FFFFFF" d="M458.2,62.7l-7.4,13h-4.4l-0.8-7.7h0l-4.3,7.7h-4.5l-2-13h4.5l0.5,8.2h0l4.5-8.2h4.5
		l0.7,8.1h0l3.6-8.1H458.2z"/>
	<path display="inline" fill="#FFFFFF" d="M481.8,62.7l-7.4,13H470l-0.8-7.7h0l-4.3,7.7h-4.5l-2-13h4.5l0.5,8.2h0l4.5-8.2h4.5
		l0.7,8.1h0l3.6-8.1H481.8z"/>
	<path display="inline" fill="#FFFFFF" d="M505.4,62.7l-7.4,13h-4.4l-0.8-7.7h0l-4.3,7.7H484l-2-13h4.5l0.5,8.2h0l4.5-8.2h4.5
		l0.7,8.1h0l3.6-8.1H505.4z"/>
	<path display="inline" fill="#FFFFFF" d="M508.3,70.6l-1.1,5h-5.3l1.1-5H508.3z"/>
	<path display="inline" fill="#FFFFFF" d="M526.5,62.7l-2.6,12.2c-0.5,2.4-1.3,4-2.4,4.8c-1.1,0.8-2.7,1.2-4.8,1.2
		c-1.5,0-2.6-0.1-3.4-0.4c-0.8-0.2-1.5-0.7-2.1-1.5c-0.6-0.8-0.9-1.6-0.9-2.5c0-0.3,0-0.5,0-0.6l4.7,0.7c0,0.9,0.5,1.3,1.4,1.3
		c0.6,0,1.1-0.2,1.5-0.6c0.4-0.4,0.7-1,0.9-1.9l0.4-1.9l0,0c-1.1,1.1-2.4,1.7-3.8,1.7c-1.3,0-2.4-0.5-3.2-1.4
		c-0.8-0.9-1.2-2.2-1.2-3.7c0-2.1,0.6-3.8,1.8-5.4c1.2-1.5,2.8-2.3,4.7-2.3c1.6,0,2.9,0.7,3.9,2.1l0.4-1.8H526.5z M517.6,71.8
		c0.9,0,1.6-0.5,2.1-1.5c0.5-1,0.7-1.9,0.7-2.8c0-0.5-0.2-1-0.5-1.3c-0.3-0.3-0.7-0.5-1.2-0.5c-0.8,0-1.4,0.4-2,1.3
		c-0.6,0.9-0.8,1.8-0.8,2.9c0,0.6,0.2,1.1,0.5,1.4C516.7,71.7,517.1,71.8,517.6,71.8z"/>
	<path display="inline" fill="#FFFFFF" d="M534.9,62.7l-2.8,13h-5l2.8-13H534.9z M535.9,57.8l-0.7,3.4h-5l0.7-3.4H535.9z"/>
	<path display="inline" fill="#FFFFFF" d="M542.3,64.7c1.4-1.5,3-2.3,5-2.3c1.2,0,2.1,0.3,2.6,0.9c0.6,0.6,0.9,1.3,0.9,2.2
		c0,0.5-0.2,1.5-0.5,3.1l-1.5,7.1h-5l1.3-6c0.3-1.5,0.5-2.3,0.5-2.5c0-0.7-0.3-1.1-1-1.1c-0.7,0-1.4,0.3-1.9,1c-0.5,0.7-1,1.7-1.2,3
		l-1.2,5.6h-5l2.8-13h4.7L542.3,64.7L542.3,64.7z"/>
	<path display="inline" fill="#FFFFFF" d="M565.9,62.7l-0.6,3l-7.1,6.6h6.3l-0.7,3.4h-12.1l0.6-2.9l7.2-6.6h-5.9l0.8-3.4H565.9z"/>
	<path display="inline" fill="#FFFFFF" d="M573.8,62.7l-2.8,13h-5l2.8-13H573.8z M574.8,57.8l-0.7,3.4h-5l0.7-3.4H574.8z"/>
	<path display="inline" fill="#FFFFFF" d="M581.2,64.7c1.4-1.5,3-2.3,5-2.3c1.2,0,2.1,0.3,2.6,0.9c0.6,0.6,0.9,1.3,0.9,2.2
		c0,0.5-0.2,1.5-0.5,3.1l-1.5,7.1h-5l1.3-6c0.3-1.5,0.5-2.3,0.5-2.5c0-0.7-0.3-1.1-1-1.1c-0.7,0-1.4,0.3-1.9,1c-0.5,0.7-1,1.7-1.2,3
		l-1.2,5.6h-5l2.8-13h4.7L581.2,64.7L581.2,64.7z"/>
	<path display="inline" fill="#FFFFFF" d="M607.1,62.7l-2.6,12.2c-0.5,2.4-1.3,4-2.4,4.8c-1.1,0.8-2.7,1.2-4.8,1.2
		c-1.5,0-2.6-0.1-3.4-0.4c-0.8-0.2-1.5-0.7-2.1-1.5c-0.6-0.8-0.9-1.6-0.9-2.5c0-0.3,0-0.5,0-0.6l4.7,0.7c0,0.9,0.5,1.3,1.4,1.3
		c0.6,0,1.1-0.2,1.5-0.6c0.4-0.4,0.7-1,0.9-1.9l0.4-1.9l0,0c-1.1,1.1-2.4,1.7-3.8,1.7c-1.3,0-2.4-0.5-3.2-1.4
		c-0.8-0.9-1.2-2.2-1.2-3.7c0-2.1,0.6-3.8,1.8-5.4c1.2-1.5,2.8-2.3,4.7-2.3c1.6,0,2.9,0.7,3.9,2.1l0.4-1.8H607.1z M598.2,71.8
		c0.9,0,1.6-0.5,2.1-1.5c0.5-1,0.7-1.9,0.7-2.8c0-0.5-0.2-1-0.5-1.3c-0.3-0.3-0.7-0.5-1.2-0.5c-0.8,0-1.4,0.4-2,1.3
		c-0.6,0.9-0.8,1.8-0.8,2.9c0,0.6,0.2,1.1,0.5,1.4C597.3,71.7,597.7,71.8,598.2,71.8z"/>
	<path display="inline" fill="#FFFFFF" d="M622.2,72.3c-0.7,1.3-1.7,2.2-2.8,2.8c-1.2,0.6-2.6,0.8-4.4,0.8c-2.6,0-4.4-0.6-5.5-1.7
		c-1.1-1.2-1.6-2.6-1.6-4.2c0-1.2,0.3-2.2,0.8-3.3c0.5-1,1.2-1.9,2.1-2.6c0.9-0.7,1.7-1.2,2.6-1.4c0.8-0.2,1.8-0.4,2.9-0.4
		c2.4,0,4.2,0.5,5.2,1.6c1.1,1,1.6,2.3,1.6,3.9c0,0.5-0.1,1.4-0.3,2.6h-9.9c0.1,1.7,0.9,2.6,2.3,2.6c1,0,1.7-0.4,2.3-1.2L622.2,72.3
		z M618,68c0.1-0.2,0.1-0.4,0.1-0.7c0-0.7-0.2-1.2-0.6-1.5c-0.4-0.3-0.9-0.5-1.5-0.5c-0.6,0-1.2,0.2-1.7,0.7
		c-0.5,0.5-0.9,1.1-1.2,2.1H618z"/>
	<path display="inline" fill="#FFFFFF" d="M636.3,62.8l-1.8,3.8c-0.4-0.1-0.7-0.1-1-0.1c-1,0-1.7,0.3-2.3,1
		c-0.6,0.7-1.1,1.8-1.4,3.3l-1,4.8h-5l2.8-13h4.7l-0.6,2.6l0,0c0.8-1.1,1.5-1.9,2-2.3c0.6-0.4,1.2-0.6,1.9-0.6
		C635.2,62.4,635.7,62.5,636.3,62.8z"/>
	<path display="inline" fill="#FFFFFF" d="M638.5,70.6l-1.1,5h-5.3l1.1-5H638.5z"/>
	<path display="inline" fill="#FFFFFF" d="M642.4,66.3c0.3-1.2,1-2.2,2.1-2.8c1.1-0.7,2.7-1,5-1c2.5,0,4.3,0.3,5.2,1
		c0.9,0.6,1.3,1.6,1.3,2.8c0,0.8-0.2,2.2-0.7,4c-0.4,1.8-0.6,3-0.6,3.7c0,0.6,0.1,1.2,0.3,1.8h-4.8c-0.1-0.5-0.2-1-0.2-1.5
		c-1.3,1.2-2.8,1.8-4.4,1.8c-1.6,0-2.8-0.4-3.5-1.1c-0.7-0.8-1.1-1.7-1.1-2.7c0-1.1,0.3-2,1-2.6c0.6-0.6,1.4-1,2.4-1.2
		c0.9-0.2,2.2-0.4,3.8-0.6c1.4-0.2,2.4-0.3,2.9-0.5c0.1-0.4,0.1-0.7,0.1-0.9c0-0.3-0.2-0.6-0.5-0.8c-0.3-0.2-0.8-0.3-1.3-0.3
		c-0.6,0-1,0.1-1.4,0.3c-0.4,0.2-0.7,0.6-0.9,1.2L642.4,66.3z M650.4,69.9c-2.3,0.4-3.6,0.7-4,1c-0.4,0.3-0.6,0.6-0.6,1
		c0,0.4,0.1,0.7,0.4,1c0.3,0.2,0.7,0.4,1.1,0.4c0.6,0,1.2-0.3,1.9-0.8C649.8,72,650.2,71.1,650.4,69.9z"/>
	<path display="inline" fill="#FFFFFF" d="M668,62.7l-0.8,3.6h-2.6l-1,4.6c-0.1,0.2-0.1,0.4-0.1,0.6c0,0.6,0.4,0.9,1.2,0.9
		c0.2,0,0.8-0.1,1.5-0.2l-0.7,3.6c-1.5,0.2-2.6,0.3-3.3,0.3c-1.4,0-2.4-0.3-3-1c-0.6-0.7-0.9-1.4-0.9-2.2c0-0.3,0.1-1,0.4-2.1
		l0.9-4.4h-1.8l0.7-3.6h1.8l0.4-2l5.6-2.8l-1,4.8H668z"/>
	<g id="Wirsind..." display="inline">
		<path fill="#FFFFFF" d="M185.1,67L185.1,67l9.2-16.1h5.1l0.9,16.1h0.1l8.6-16.1h6.7l-14.1,24.9h-6.6l-0.8-14.4h-0.1l-8.4,14.4
			h-6.6L178,51h6.7L185.1,67z"/>
		<path fill="#FFFFFF" d="M216.8,75.9h-6l4.2-16.9h6L216.8,75.9z M222.9,52.4c-0.5,1.8-2.3,3.4-4.2,3.4c-1.8,0-3-1.5-2.5-3.4
			c0.5-1.8,2.3-3.4,4.2-3.4C222.2,49.1,223.3,50.6,222.9,52.4z"/>
		<path fill="#FFFFFF" d="M229.7,61.7L229.7,61.7c1.7-2.1,3.9-3,6.3-3h1.2l-1.4,5.7c-0.7-0.5-1.5-0.6-2.4-0.6
			c-3.3,0-4.7,2.2-5.4,5.2l-1.7,6.8h-6l4.2-16.9h6L229.7,61.7z"/>
		<path fill="#FFFFFF" d="M259.8,63.2c-0.8-0.5-2-0.8-3-0.8c-0.7,0-2,0.3-2.2,1.2c-0.3,1.2,1.6,1.3,2.4,1.5c2.7,0.6,4.4,1.9,3.7,5
			c-1.1,4.5-5.6,6.3-9.5,6.3c-2.4,0-4.6-0.7-6.4-1.9l3.2-4.2c1,0.9,2.9,1.7,4.3,1.7c0.8,0,2-0.4,2.2-1.3c0.3-1.3-1.6-1.4-3.3-1.9
			c-1.8-0.5-3.4-1.4-2.7-4.5c1-4.1,5.2-6,9-6c1.9,0,3.8,0.3,5.3,1.1L259.8,63.2z"/>
		<path fill="#FFFFFF" d="M267.9,75.9h-6l4.2-16.9h6L267.9,75.9z M274.1,52.4c-0.5,1.8-2.3,3.4-4.2,3.4c-1.8,0-3-1.5-2.5-3.4
			c0.5-1.8,2.3-3.4,4.2-3.4C273.4,49.1,274.5,50.6,274.1,52.4z"/>
		<path fill="#FFFFFF" d="M281,61.1L281,61.1c1.9-2.1,3.8-2.7,6.1-2.7c4.5,0,5.7,2.9,4.6,7l-2.6,10.5h-6l2-8.2
			c0.4-1.6,1.4-4.5-1.6-4.5c-2.4,0-3.6,1.8-4.1,3.9l-2.2,8.8h-6l4.2-16.9h6L281,61.1z"/>
		<path fill="#FFFFFF" d="M304.8,63.5c2.4,0,3.4,1.8,2.9,3.9c-0.5,2.2-2.4,3.8-4.8,3.8c-2.5,0-3.5-1.7-2.9-3.8
			C300.5,65.3,302.4,63.5,304.8,63.5z M305.5,75.9h6l6.7-27.4h-6l-3,12.1c-0.9-1.5-2.8-2.2-4.7-2.2c-5,0-9.5,4.1-10.7,9
			c-1.2,4.9,1.3,9,6.3,9c2,0,4.3-0.8,5.7-2.4h0.1L305.5,75.9z"/>
		<path fill="#FFFFFF" d="M323.1,72.6c-0.5,2.1-2.7,3.9-4.8,3.9c-2.1,0-3.4-1.8-2.9-3.9c0.5-2.1,2.7-3.9,4.8-3.9
			C322.3,68.7,323.6,70.5,323.1,72.6z"/>
		<path fill="#FFFFFF" d="M333.9,72.6c-0.5,2.1-2.7,3.9-4.8,3.9c-2.1,0-3.4-1.8-2.9-3.9c0.5-2.1,2.7-3.9,4.8-3.9
			C333.1,68.7,334.4,70.5,333.9,72.6z"/>
		<path fill="#FFFFFF" d="M344.7,72.6c-0.5,2.1-2.7,3.9-4.8,3.9c-2.1,0-3.4-1.8-2.9-3.9c0.5-2.1,2.7-3.9,4.8-3.9
			C344,68.7,345.3,70.5,344.7,72.6z"/>
	</g>
</g>
<g id="Wir_x5F_sind...rot">
	<g id="www.ginzinger.at" display="none">
		<path display="inline" fill="#C51315" stroke="#FFFFFF" d="M458.2,62.7l-7.4,13h-4.4l-0.8-7.7h0l-4.3,7.7h-4.5l-2-13h4.5l0.5,8.2
			h0l4.5-8.2h4.5l0.7,8.1h0l3.6-8.1H458.2z"/>
		<path display="inline" fill="#C51315" stroke="#FFFFFF" d="M481.8,62.7l-7.4,13H470l-0.8-7.7h0l-4.3,7.7h-4.5l-2-13h4.5l0.5,8.2h0
			l4.5-8.2h4.5l0.7,8.1h0l3.6-8.1H481.8z"/>
		<path display="inline" fill="#C51315" stroke="#FFFFFF" d="M505.4,62.7l-7.4,13h-4.4l-0.8-7.7h0l-4.3,7.7H484l-2-13h4.5l0.5,8.2h0
			l4.5-8.2h4.5l0.7,8.1h0l3.6-8.1H505.4z"/>
		<path display="inline" fill="#C51315" stroke="#FFFFFF" d="M508.3,70.6l-1.1,5h-5.3l1.1-5H508.3z"/>
		<path display="inline" fill="#C51315" stroke="#FFFFFF" d="M526.5,62.7l-2.6,12.2c-0.5,2.4-1.3,4-2.4,4.8
			c-1.1,0.8-2.7,1.2-4.8,1.2c-1.5,0-2.6-0.1-3.4-0.4c-0.8-0.2-1.5-0.7-2.1-1.5c-0.6-0.8-0.9-1.6-0.9-2.5c0-0.3,0-0.5,0-0.6l4.7,0.7
			c0,0.9,0.5,1.3,1.4,1.3c0.6,0,1.1-0.2,1.5-0.6c0.4-0.4,0.7-1,0.9-1.9l0.4-1.9l0,0c-1.1,1.1-2.4,1.7-3.8,1.7
			c-1.3,0-2.4-0.5-3.2-1.4c-0.8-0.9-1.2-2.2-1.2-3.7c0-2.1,0.6-3.8,1.8-5.4c1.2-1.5,2.8-2.3,4.7-2.3c1.6,0,2.9,0.7,3.9,2.1l0.4-1.8
			H526.5z M517.6,71.8c0.9,0,1.6-0.5,2.1-1.5c0.5-1,0.7-1.9,0.7-2.8c0-0.5-0.2-1-0.5-1.3c-0.3-0.3-0.7-0.5-1.2-0.5
			c-0.8,0-1.4,0.4-2,1.3c-0.6,0.9-0.8,1.8-0.8,2.9c0,0.6,0.2,1.1,0.5,1.4C516.7,71.7,517.1,71.8,517.6,71.8z"/>
		<path display="inline" fill="#C51315" stroke="#FFFFFF" d="M534.9,62.7l-2.8,13h-5l2.8-13H534.9z M535.9,57.8l-0.7,3.4h-5l0.7-3.4
			H535.9z"/>
		<path display="inline" fill="#C51315" stroke="#FFFFFF" d="M542.3,64.7c1.4-1.5,3-2.3,5-2.3c1.2,0,2.1,0.3,2.6,0.9
			c0.6,0.6,0.9,1.3,0.9,2.2c0,0.5-0.2,1.5-0.5,3.1l-1.5,7.1h-5l1.3-6c0.3-1.5,0.5-2.3,0.5-2.5c0-0.7-0.3-1.1-1-1.1
			c-0.7,0-1.4,0.3-1.9,1c-0.5,0.7-1,1.7-1.2,3l-1.2,5.6h-5l2.8-13h4.7L542.3,64.7L542.3,64.7z"/>
		<path display="inline" fill="#C51315" stroke="#FFFFFF" d="M565.9,62.7l-0.6,3l-7.1,6.6h6.3l-0.7,3.4h-12.1l0.6-2.9l7.2-6.6h-5.9
			l0.8-3.4H565.9z"/>
		<path display="inline" fill="#C51315" stroke="#FFFFFF" d="M573.8,62.7l-2.8,13h-5l2.8-13H573.8z M574.8,57.8l-0.7,3.4h-5l0.7-3.4
			H574.8z"/>
		<path display="inline" fill="#C51315" stroke="#FFFFFF" d="M581.2,64.7c1.4-1.5,3-2.3,5-2.3c1.2,0,2.1,0.3,2.6,0.9
			c0.6,0.6,0.9,1.3,0.9,2.2c0,0.5-0.2,1.5-0.5,3.1l-1.5,7.1h-5l1.3-6c0.3-1.5,0.5-2.3,0.5-2.5c0-0.7-0.3-1.1-1-1.1
			c-0.7,0-1.4,0.3-1.9,1c-0.5,0.7-1,1.7-1.2,3l-1.2,5.6h-5l2.8-13h4.7L581.2,64.7L581.2,64.7z"/>
		<path display="inline" fill="#C51315" stroke="#FFFFFF" d="M607.1,62.7l-2.6,12.2c-0.5,2.4-1.3,4-2.4,4.8
			c-1.1,0.8-2.7,1.2-4.8,1.2c-1.5,0-2.6-0.1-3.4-0.4c-0.8-0.2-1.5-0.7-2.1-1.5c-0.6-0.8-0.9-1.6-0.9-2.5c0-0.3,0-0.5,0-0.6l4.7,0.7
			c0,0.9,0.5,1.3,1.4,1.3c0.6,0,1.1-0.2,1.5-0.6c0.4-0.4,0.7-1,0.9-1.9l0.4-1.9l0,0c-1.1,1.1-2.4,1.7-3.8,1.7
			c-1.3,0-2.4-0.5-3.2-1.4c-0.8-0.9-1.2-2.2-1.2-3.7c0-2.1,0.6-3.8,1.8-5.4c1.2-1.5,2.8-2.3,4.7-2.3c1.6,0,2.9,0.7,3.9,2.1l0.4-1.8
			H607.1z M598.2,71.8c0.9,0,1.6-0.5,2.1-1.5c0.5-1,0.7-1.9,0.7-2.8c0-0.5-0.2-1-0.5-1.3c-0.3-0.3-0.7-0.5-1.2-0.5
			c-0.8,0-1.4,0.4-2,1.3c-0.6,0.9-0.8,1.8-0.8,2.9c0,0.6,0.2,1.1,0.5,1.4C597.3,71.7,597.7,71.8,598.2,71.8z"/>
		<path display="inline" fill="#C51315" stroke="#FFFFFF" d="M622.2,72.3c-0.7,1.3-1.7,2.2-2.8,2.8c-1.2,0.6-2.6,0.8-4.4,0.8
			c-2.6,0-4.4-0.6-5.5-1.7c-1.1-1.2-1.6-2.6-1.6-4.2c0-1.2,0.3-2.2,0.8-3.3c0.5-1,1.2-1.9,2.1-2.6c0.9-0.7,1.7-1.2,2.6-1.4
			c0.8-0.2,1.8-0.4,2.9-0.4c2.4,0,4.2,0.5,5.2,1.6c1.1,1,1.6,2.3,1.6,3.9c0,0.5-0.1,1.4-0.3,2.6h-9.9c0.1,1.7,0.9,2.6,2.3,2.6
			c1,0,1.7-0.4,2.3-1.2L622.2,72.3z M618,68c0.1-0.2,0.1-0.4,0.1-0.7c0-0.7-0.2-1.2-0.6-1.5c-0.4-0.3-0.9-0.5-1.5-0.5
			c-0.6,0-1.2,0.2-1.7,0.7c-0.5,0.5-0.9,1.1-1.2,2.1H618z"/>
		<path display="inline" fill="#C51315" stroke="#FFFFFF" d="M636.3,62.8l-1.8,3.8c-0.4-0.1-0.7-0.1-1-0.1c-1,0-1.7,0.3-2.3,1
			c-0.6,0.7-1.1,1.8-1.4,3.3l-1,4.8h-5l2.8-13h4.7l-0.6,2.6l0,0c0.8-1.1,1.5-1.9,2-2.3c0.6-0.4,1.2-0.6,1.9-0.6
			C635.2,62.4,635.7,62.5,636.3,62.8z"/>
		<path display="inline" fill="#C51315" stroke="#FFFFFF" d="M638.5,70.6l-1.1,5h-5.3l1.1-5H638.5z"/>
		<path display="inline" fill="#C51315" stroke="#FFFFFF" d="M642.4,66.3c0.3-1.2,1-2.2,2.1-2.8c1.1-0.7,2.7-1,5-1
			c2.5,0,4.3,0.3,5.2,1c0.9,0.6,1.3,1.6,1.3,2.8c0,0.8-0.2,2.2-0.7,4c-0.4,1.8-0.6,3-0.6,3.7c0,0.6,0.1,1.2,0.3,1.8h-4.8
			c-0.1-0.5-0.2-1-0.2-1.5c-1.3,1.2-2.8,1.8-4.4,1.8c-1.6,0-2.8-0.4-3.5-1.1c-0.7-0.8-1.1-1.7-1.1-2.7c0-1.1,0.3-2,1-2.6
			c0.6-0.6,1.4-1,2.4-1.2c0.9-0.2,2.2-0.4,3.8-0.6c1.4-0.2,2.4-0.3,2.9-0.5c0.1-0.4,0.1-0.7,0.1-0.9c0-0.3-0.2-0.6-0.5-0.8
			c-0.3-0.2-0.8-0.3-1.3-0.3c-0.6,0-1,0.1-1.4,0.3c-0.4,0.2-0.7,0.6-0.9,1.2L642.4,66.3z M650.4,69.9c-2.3,0.4-3.6,0.7-4,1
			c-0.4,0.3-0.6,0.6-0.6,1c0,0.4,0.1,0.7,0.4,1c0.3,0.2,0.7,0.4,1.1,0.4c0.6,0,1.2-0.3,1.9-0.8C649.8,72,650.2,71.1,650.4,69.9z"/>
		<path display="inline" fill="#C51315" stroke="#FFFFFF" d="M668,62.7l-0.8,3.6h-2.6l-1,4.6c-0.1,0.2-0.1,0.4-0.1,0.6
			c0,0.6,0.4,0.9,1.2,0.9c0.2,0,0.8-0.1,1.5-0.2l-0.7,3.6c-1.5,0.2-2.6,0.3-3.3,0.3c-1.4,0-2.4-0.3-3-1c-0.6-0.7-0.9-1.4-0.9-2.2
			c0-0.3,0.1-1,0.4-2.1l0.9-4.4h-1.8l0.7-3.6h1.8l0.4-2l5.6-2.8l-1,4.8H668z"/>
	</g>
	<g id="Wirsind..._1_">
		<g>
			<path fill="#C51315" d="M195.2,76.5c-0.3,0-0.6-0.2-0.6-0.6l-0.7-12.5l-7.5,12.8c-0.1,0.2-0.3,0.3-0.5,0.3h-6.6
				c-0.3,0-0.6-0.3-0.6-0.6L177.4,51c0-0.2,0.1-0.3,0.2-0.4c0.1-0.1,0.3-0.2,0.4-0.2h6.7c0.3,0,0.6,0.3,0.6,0.6l0.3,14l8.2-14.3
				c0.1-0.2,0.3-0.3,0.5-0.3h5.1c0.3,0,0.6,0.2,0.6,0.6l0.8,14.1l7.7-14.3c0.1-0.2,0.3-0.3,0.5-0.3h6.7c0.2,0,0.4,0.1,0.5,0.3
				c0.1,0.2,0.1,0.4,0,0.6l-14.1,24.9c-0.1,0.2-0.3,0.3-0.5,0.3H195.2z"/>
			<path fill="#FFFFFF" d="M215.9,51L215.9,51 M215.9,51l-14.1,24.9h-6.6l-0.8-14.4h-0.1l-8.4,14.4h-6.6L178,51h6.7l0.4,16.1h0.1
				l9.2-16.1h5.1l0.9,16.1h0.1l8.6-16.1H215.9 M215.9,49.8L215.9,49.8h-6.7c-0.4,0-0.8,0.2-1.1,0.6l-6.7,12.4l-0.7-11.9
				c0-0.6-0.6-1.1-1.2-1.1h-5.1c-0.4,0-0.8,0.2-1,0.6l-7.1,12.4L185.9,51c0-0.7-0.5-1.2-1.2-1.2H178c-0.3,0-0.6,0.1-0.9,0.4
				c-0.2,0.2-0.3,0.6-0.3,0.9l1.3,24.9c0,0.6,0.6,1.1,1.2,1.1h6.6c0.4,0,0.8-0.2,1-0.6l6.5-11.1l0.6,10.5c0,0.6,0.6,1.1,1.2,1.1h6.6
				c0.4,0,0.8-0.2,1-0.6l14-24.8c0.1-0.2,0.2-0.4,0.2-0.6C217.1,50.3,216.5,49.8,215.9,49.8L215.9,49.8z"/>
		</g>
		<g>
			<path fill="#C51315" d="M210.8,76.5c-0.2,0-0.4-0.1-0.5-0.2c-0.1-0.1-0.2-0.3-0.1-0.5l4.2-16.9c0.1-0.3,0.3-0.5,0.6-0.5h6
				c0.2,0,0.4,0.1,0.5,0.2c0.1,0.1,0.2,0.3,0.1,0.5L217.3,76c-0.1,0.3-0.3,0.5-0.6,0.5H210.8z M218.7,56.4c-1.1,0-2-0.4-2.6-1.2
				c-0.6-0.8-0.8-1.8-0.5-2.9c0.5-2.1,2.7-3.8,4.8-3.8c1.1,0,2,0.4,2.6,1.2c0.6,0.8,0.8,1.8,0.5,2.9C223,54.7,220.8,56.4,218.7,56.4
				z"/>
			<path fill="#FFFFFF" d="M220.3,49.1c1.9,0,3,1.5,2.5,3.4c-0.5,1.8-2.3,3.4-4.2,3.4c-1.8,0-3-1.5-2.5-3.4
				C216.6,50.6,218.5,49.1,220.3,49.1 M220.9,58.9l-4.2,16.9h-6l4.2-16.9H220.9 M220.3,47.9c-2.4,0-4.8,1.9-5.4,4.3
				c-0.3,1.3-0.1,2.5,0.7,3.4c0.7,0.9,1.8,1.4,3.1,1.4c2.4,0,4.8-1.9,5.4-4.3c0.3-1.3,0.1-2.5-0.7-3.4
				C222.7,48.4,221.6,47.9,220.3,47.9L220.3,47.9z M220.9,57.7h-6c-0.6,0-1,0.4-1.2,0.9l-4.2,16.9c-0.1,0.4,0,0.7,0.2,1
				c0.2,0.3,0.6,0.5,0.9,0.5h6c0.6,0,1-0.4,1.2-0.9l4.2-16.9c0.1-0.4,0-0.7-0.2-1C221.6,57.9,221.3,57.7,220.9,57.7L220.9,57.7z"/>
		</g>
		<g>
			<path fill="#C51315" d="M220.2,76.5c-0.2,0-0.4-0.1-0.5-0.2c-0.1-0.1-0.2-0.3-0.1-0.5l4.2-16.9c0.1-0.3,0.3-0.5,0.6-0.5h6
				c0.2,0,0.4,0.1,0.5,0.2c0.1,0.1,0.2,0.3,0.1,0.5l-0.2,0.8c1.5-1.2,3.2-1.8,5.2-1.8h1.2c0.2,0,0.4,0.1,0.5,0.2
				c0.1,0.1,0.2,0.3,0.1,0.5l-1.4,5.7c0,0.2-0.2,0.3-0.4,0.4c-0.1,0-0.1,0-0.2,0c-0.1,0-0.2,0-0.3-0.1c-0.6-0.4-1.3-0.5-2.1-0.5
				c-2.6,0-4,1.4-4.8,4.7l-1.7,6.8c-0.1,0.3-0.3,0.5-0.6,0.5H220.2z"/>
			<path fill="#FFFFFF" d="M237.2,58.7L237.2,58.7 M237.2,58.7l-1.4,5.7c-0.7-0.5-1.5-0.6-2.4-0.6c-3.3,0-4.7,2.2-5.4,5.2l-1.7,6.8
				h-6l4.2-16.9h6l-0.7,2.7h0.1c1.7-2.1,3.9-3,6.2-3H237.2 M237.2,57.5L237.2,57.5H236c-1.6,0-3.1,0.4-4.5,1.1
				c0-0.1-0.1-0.3-0.2-0.4c-0.2-0.3-0.6-0.5-0.9-0.5h-6c-0.6,0-1,0.4-1.2,0.9l-4.2,16.9c-0.1,0.4,0,0.7,0.2,1
				c0.2,0.3,0.6,0.5,0.9,0.5h6c0.6,0,1-0.4,1.2-0.9l1.7-6.8c0.7-3,2-4.3,4.3-4.3c0.9,0,1.3,0.1,1.7,0.4c0.2,0.1,0.4,0.2,0.7,0.2
				c0.1,0,0.3,0,0.4-0.1c0.4-0.1,0.6-0.5,0.7-0.8l1.4-5.7c0-0.1,0.1-0.2,0.1-0.4C238.4,58,237.8,57.5,237.2,57.5L237.2,57.5z"/>
		</g>
		<g>
			<path fill="#C51315" d="M251.1,77c-2.5,0-4.9-0.7-6.7-2.1c-0.1-0.1-0.2-0.2-0.2-0.4c0-0.2,0-0.3,0.1-0.5l3.2-4.2
				c0.1-0.1,0.2-0.2,0.4-0.2c0,0,0,0,0.1,0c0.1,0,0.3,0.1,0.4,0.1c0.9,0.8,2.6,1.6,4,1.6c0.6,0,1.5-0.3,1.6-0.8c0-0.2,0-0.2,0-0.2
				c-0.2-0.3-1.1-0.5-1.8-0.6c-0.4-0.1-0.7-0.2-1.1-0.3c-1.8-0.5-4-1.6-3.1-5.2c1.1-4.4,5.6-6.4,9.5-6.4c2.2,0,4.1,0.4,5.6,1.1
				c0.2,0.1,0.3,0.2,0.3,0.4c0,0.2,0,0.4-0.1,0.5l-2.9,3.8c-0.1,0.2-0.3,0.2-0.5,0.2c-0.1,0-0.2,0-0.3-0.1c-0.7-0.4-1.8-0.7-2.7-0.7
				c-0.6,0-1.5,0.3-1.6,0.7c0,0.1,0,0.1,0,0.2c0.2,0.3,1.1,0.5,1.5,0.5c0.1,0,0.2,0,0.3,0.1c1.9,0.4,3.1,1.1,3.8,2.2
				c0.6,0.9,0.7,2.2,0.4,3.6C260,75.2,255,77,251.1,77z"/>
			<path fill="#FFFFFF" d="M257.4,58.4c1.9,0,3.8,0.3,5.3,1.1l-2.9,3.8c-0.8-0.5-2-0.8-3-0.8c-0.7,0-2,0.3-2.2,1.2
				c-0.3,1.2,1.6,1.3,2.4,1.5c2.7,0.6,4.4,1.9,3.7,5c-1.1,4.5-5.6,6.3-9.5,6.3c-2.4,0-4.6-0.7-6.4-1.9l3.2-4.2
				c1,0.9,2.9,1.7,4.3,1.7c0.8,0,2-0.4,2.2-1.3c0.3-1.3-1.6-1.4-3.3-1.9c-1.8-0.5-3.4-1.4-2.7-4.5C249.5,60.2,253.7,58.4,257.4,58.4
				 M257.4,57.2c-4.2,0-9,2.1-10.1,6.9c-0.8,3.1,0.4,5,3.5,5.9c0.4,0.1,0.8,0.2,1.1,0.3c0.4,0.1,0.9,0.2,1.2,0.3
				c-0.2,0.1-0.5,0.2-0.9,0.2c-1.2,0-2.7-0.7-3.6-1.4c-0.2-0.2-0.5-0.3-0.8-0.3c0,0-0.1,0-0.1,0c-0.3,0-0.6,0.2-0.8,0.5l-3.2,4.2
				c-0.2,0.3-0.3,0.6-0.2,0.9c0,0.3,0.2,0.6,0.5,0.8c2,1.4,4.4,2.2,7.1,2.2c4.1,0,9.4-1.9,10.7-7.2c0.4-1.6,0.2-3-0.4-4.1
				c-0.8-1.2-2.1-2-4.2-2.4c-0.1,0-0.2,0-0.4-0.1c-0.1,0-0.4-0.1-0.6-0.1c0.2,0,0.4-0.1,0.6-0.1c0.8,0,1.8,0.3,2.4,0.6
				c0.2,0.1,0.4,0.2,0.6,0.2c0.4,0,0.7-0.2,1-0.5l2.9-3.8c0.2-0.3,0.3-0.6,0.2-1c-0.1-0.3-0.3-0.6-0.6-0.8
				C261.7,57.6,259.7,57.2,257.4,57.2L257.4,57.2z"/>
		</g>
		<g>
			<path fill="#C51315" d="M261.9,76.5c-0.2,0-0.4-0.1-0.5-0.2c-0.1-0.1-0.2-0.3-0.1-0.5l4.2-16.9c0.1-0.3,0.3-0.5,0.6-0.5h6
				c0.2,0,0.4,0.1,0.5,0.2c0.1,0.1,0.2,0.3,0.1,0.5L268.5,76c-0.1,0.3-0.3,0.5-0.6,0.5H261.9z M269.9,56.4c-1.1,0-2-0.4-2.6-1.2
				c-0.6-0.8-0.8-1.8-0.5-2.9c0.5-2.1,2.7-3.8,4.8-3.8c1.1,0,2,0.4,2.6,1.2c0.6,0.8,0.8,1.8,0.5,2.9C274.1,54.7,272,56.4,269.9,56.4
				z"/>
			<path fill="#FFFFFF" d="M271.5,49.1c1.8,0,3,1.5,2.5,3.4c-0.5,1.8-2.3,3.4-4.2,3.4c-1.8,0-3-1.5-2.5-3.4
				C267.8,50.6,269.7,49.1,271.5,49.1 M272.1,58.9l-4.2,16.9h-6l4.2-16.9H272.1 M271.5,47.9c-2.4,0-4.8,1.9-5.4,4.3
				c-0.3,1.3-0.1,2.5,0.7,3.4c0.7,0.9,1.8,1.4,3.1,1.4c2.4,0,4.8-1.9,5.4-4.3c0.3-1.3,0.1-2.5-0.7-3.4
				C273.9,48.4,272.8,47.9,271.5,47.9L271.5,47.9z M272.1,57.7h-6c-0.6,0-1,0.4-1.2,0.9l-4.2,16.9c-0.1,0.4,0,0.7,0.2,1
				c0.2,0.3,0.6,0.5,0.9,0.5h6c0.6,0,1-0.4,1.2-0.9l4.2-16.9c0.1-0.4,0-0.7-0.2-1C272.8,57.9,272.5,57.7,272.1,57.7L272.1,57.7z"/>
		</g>
		<g>
			<path fill="#C51315" d="M283.2,76.5c-0.2,0-0.4-0.1-0.5-0.2c-0.1-0.1-0.2-0.3-0.1-0.5l2.1-8.6c0.2-0.9,0.6-2.3,0.1-2.9
				c-0.2-0.3-0.6-0.4-1.2-0.4c-1.8,0-2.9,1.1-3.5,3.5L278,76c-0.1,0.3-0.3,0.5-0.6,0.5h-6c-0.2,0-0.4-0.1-0.5-0.2
				c-0.1-0.1-0.2-0.3-0.1-0.5l4.2-16.9c0.1-0.3,0.3-0.5,0.6-0.5h6c0.2,0,0.4,0.1,0.5,0.2c0.1,0.1,0.2,0.3,0.1,0.5l-0.1,0.3
				c1.5-1.1,3.1-1.6,5.1-1.6c2.1,0,3.7,0.6,4.6,1.8c1.1,1.3,1.3,3.4,0.6,6L289.8,76c-0.1,0.3-0.3,0.5-0.6,0.5H283.2z"/>
			<path fill="#FFFFFF" d="M287.2,58.4c4.5,0,5.7,2.9,4.6,7l-2.6,10.5h-6l2-8.2c0.4-1.6,1.4-4.5-1.6-4.5c-2.4,0-3.6,1.8-4.1,3.9
				l-2.2,8.8h-6l4.2-16.9h6l-0.5,2.2h0.1C283,59.1,284.8,58.4,287.2,58.4 M287.2,57.2c-1.7,0-3.2,0.4-4.6,1.2c0,0-0.1-0.1-0.1-0.1
				c-0.2-0.3-0.6-0.5-0.9-0.5h-6c-0.6,0-1,0.4-1.2,0.9l-4.2,16.9c-0.1,0.4,0,0.7,0.2,1c0.2,0.3,0.6,0.5,0.9,0.5h6
				c0.6,0,1-0.4,1.2-0.9l2.2-8.8c0.7-2.7,2-3,2.9-3c0.5,0,0.7,0.1,0.8,0.2c0.3,0.4-0.1,1.7-0.2,2.4l-0.1,0.4l-2,8.2
				c-0.1,0.4,0,0.7,0.2,1c0.2,0.3,0.6,0.5,0.9,0.5h6c0.6,0,1-0.4,1.2-0.9l2.6-10.5c0.7-2.8,0.5-5-0.7-6.5
				C291.2,57.8,289.5,57.2,287.2,57.2L287.2,57.2z"/>
		</g>
		<g>
			<path fill="#C51315" d="M300.1,77c-2.4,0-4.4-0.9-5.7-2.6c-1.4-1.8-1.9-4.5-1.2-7.2c1.3-5.4,6.2-9.5,11.3-9.5
				c1.8,0,3.4,0.5,4.4,1.5l2.7-10.9c0.1-0.3,0.3-0.5,0.6-0.5h6c0.2,0,0.4,0.1,0.5,0.2c0.1,0.1,0.2,0.3,0.1,0.5L312.1,76
				c-0.1,0.3-0.3,0.5-0.6,0.5h-6c-0.2,0-0.4-0.1-0.5-0.2c-0.1-0.1-0.2-0.3-0.1-0.5l0-0.1C303.6,76.5,301.9,77,300.1,77z M304.8,64.1
				c-2.3,0-3.8,1.8-4.2,3.4c-0.2,0.9-0.1,1.8,0.3,2.3c0.4,0.5,1.1,0.8,2.1,0.8c2,0,3.7-1.4,4.2-3.4c0.2-0.9,0.1-1.8-0.3-2.3
				C306.4,64.4,305.7,64.1,304.8,64.1z"/>
			<path fill="#FFFFFF" d="M318.2,48.5l-6.7,27.4h-6l0.5-1.9h-0.1c-1.5,1.7-3.7,2.4-5.7,2.4c-5,0-7.5-4.2-6.3-9
				c1.2-4.9,5.7-9,10.7-9c2,0,3.8,0.7,4.7,2.2l3-12.1H318.2 M302.9,71.2c2.5,0,4.3-1.7,4.8-3.8c0.5-2.1-0.5-3.9-2.9-3.9
				c-2.5,0-4.3,1.8-4.8,3.9C299.5,69.6,300.5,71.2,302.9,71.2 M318.2,47.3h-6c-0.6,0-1,0.4-1.2,0.9l-2.5,10
				c-1.1-0.7-2.5-1.1-4.1-1.1c-5.4,0-10.5,4.3-11.9,9.9c-0.7,2.9-0.2,5.8,1.3,7.7c1.4,1.8,3.6,2.8,6.2,2.8c1.6,0,3.1-0.4,4.4-1.1
				c0,0,0,0,0,0c0.2,0.3,0.6,0.5,0.9,0.5h6c0.6,0,1-0.4,1.2-0.9l6.7-27.4c0.1-0.4,0-0.7-0.2-1C318.9,47.5,318.6,47.3,318.2,47.3
				L318.2,47.3z M302.9,70c-0.5,0-1.2-0.1-1.6-0.6c-0.3-0.4-0.4-1-0.2-1.8c0.3-1.4,1.6-2.9,3.7-2.9c0.5,0,1.2,0.1,1.5,0.6
				c0.3,0.4,0.4,1.1,0.2,1.8C306.1,68.9,304.7,70,302.9,70L302.9,70z"/>
		</g>
		<g>
			<path fill="#C51315" d="M318.3,77.1c-1.2,0-2.2-0.5-2.9-1.3c-0.7-0.9-0.9-2.1-0.6-3.3c0.6-2.4,3-4.3,5.4-4.3
				c1.2,0,2.2,0.5,2.9,1.3c0.7,0.9,0.9,2,0.6,3.3C323.1,75.1,320.7,77.1,318.3,77.1z"/>
			<path fill="#FFFFFF" d="M320.2,68.7c2.1,0,3.4,1.7,2.9,3.9c-0.5,2.1-2.7,3.9-4.8,3.9c-2.1,0-3.4-1.8-2.9-3.9
				C315.9,70.5,318,68.7,320.2,68.7 M320.2,67.5c-2.7,0-5.3,2.1-6,4.8c-0.3,1.4-0.1,2.8,0.7,3.8c0.8,1,2,1.6,3.4,1.6
				c2.7,0,5.3-2.1,6-4.8c0.3-1.4,0.1-2.8-0.7-3.8C322.8,68.1,321.6,67.5,320.2,67.5L320.2,67.5z"/>
		</g>
		<g>
			<path fill="#C51315" d="M329.1,77.1c-1.2,0-2.2-0.5-2.9-1.3c-0.7-0.9-0.9-2.1-0.6-3.3c0.6-2.4,3-4.3,5.4-4.3
				c1.2,0,2.2,0.5,2.9,1.3c0.7,0.9,0.9,2,0.6,3.3C333.9,75.1,331.5,77.1,329.1,77.1z"/>
			<path fill="#FFFFFF" d="M331,68.7c2.1,0,3.4,1.7,2.9,3.9c-0.5,2.1-2.7,3.9-4.8,3.9c-2.1,0-3.4-1.8-2.9-3.9
				C326.7,70.5,328.9,68.7,331,68.7 M331,67.5c-2.7,0-5.3,2.1-6,4.8c-0.3,1.4-0.1,2.8,0.7,3.8c0.8,1,2,1.6,3.4,1.6
				c2.7,0,5.3-2.1,6-4.8c0.3-1.4,0.1-2.8-0.7-3.8C333.6,68.1,332.4,67.5,331,67.5L331,67.5z"/>
		</g>
		<g>
			<path fill="#C51315" d="M339.9,77.1c-1.2,0-2.2-0.5-2.9-1.3c-0.7-0.9-0.9-2.1-0.6-3.3c0.6-2.4,3-4.3,5.4-4.3
				c1.2,0,2.2,0.5,2.9,1.3c0.7,0.9,0.9,2,0.6,3.3C344.7,75.1,342.3,77.1,339.9,77.1z"/>
			<path fill="#FFFFFF" d="M341.8,68.7c2.1,0,3.4,1.7,2.9,3.9c-0.5,2.1-2.7,3.9-4.8,3.9c-2.1,0-3.4-1.8-2.9-3.9
				C337.5,70.5,339.7,68.7,341.8,68.7 M341.8,67.5c-2.7,0-5.3,2.1-6,4.8c-0.3,1.4-0.1,2.8,0.7,3.8c0.8,1,2,1.6,3.4,1.6
				c2.7,0,5.3-2.1,6-4.8c0.3-1.4,0.1-2.8-0.7-3.8C344.4,68.1,343.2,67.5,341.8,67.5L341.8,67.5z"/>
		</g>
	</g>
</g>
<g id="Logoschwarz">
	<g>
		<g>
			<path fill="#FFFFFF" d="M101.2,20.4c28.4-4.7,46.4,7.3,53.2,26.6c2.1,6,2.9,11.3,3.4,19.1c-17.1,7.3-17.9,7.3-36.8,14.6
				c-1.3-9.8-6.3-16.3-10.9-19.4c-4.6-3.1-12.2-3.8-15-3.4c-25.9,3.6-57,53-41.6,83.9c2.1,4.3,7.3,8.9,12.3,10.2
				c20.3,5.5,33.4-11,38.6-23.8c-9.8,0-25.6,0.1-25.6,0.1l8.9-34.2c0,0,45.5,0,68.2,0c-2,10.6-4.5,17-7.5,24.6
				c-13.6,32.5-27.9,53.4-54.6,64.1c-12.6,5.1-31.4,7.9-47.1,4.1c-61.8-15-38-101.2-4.8-133C57.8,36.8,74.9,24.8,101.2,20.4z"/>
			<path fill="#FFFFFF" d="M100.2,14.5L100.2,14.5c-24.7,4.1-43.4,14.6-62.6,35.1C18.4,68.1,2.2,103.3,2.2,134.5
				c0,6.8,0.8,13.4,2.4,19.6c5.4,20.1,19.4,33.4,40.5,38.5c18.3,4.5,38.8,0.4,50.7-4.4c29.6-12,44.6-35.6,57.9-67.4
				c3.3-8.2,5.8-14.8,7.9-25.7c0.3-1.8-0.1-3.6-1.3-4.9c-1.1-1.4-2.8-2.2-4.6-2.2H87.5c-2.7,0-5.1,1.8-5.8,4.5l-8.9,34.2
				c-0.5,1.8-0.1,3.7,1.1,5.2c1.1,1.5,2.9,2.3,4.8,2.3c0,0,8.2,0,15.7,0c-4.9,7.2-13.6,15.7-27.1,12c-3-0.8-7-4.1-8.5-7.1
				c-5.9-11.9-4.2-28.9,4.7-45.7c8.4-16,21.7-28.1,32.4-29.6c1.8-0.3,7.8,0.4,10.9,2.5c3.3,2.2,7.2,7.3,8.3,15.2
				c0.2,1.8,1.3,3.4,2.9,4.3c1.6,0.9,3.5,1.1,5.2,0.4l12.2-4.7c8.4-3.2,12.3-4.7,24.8-10c2.3-1,3.8-3.3,3.6-5.9
				c-0.5-7.8-1.2-13.7-3.7-20.7C151.6,21.1,129.2,9.7,100.2,14.5z M148.7,49c1.4,4.1,2.2,7.8,2.7,13.3c-9.3,3.9-13.1,5.4-20.4,8.2
				c0,0-2.9,1.1-5.8,2.2c-2.3-6.9-6.5-12.8-11.8-16.3c-5.9-4-15-4.9-19.2-4.4c-14.7,2-30.9,16.1-41.4,35.9
				c-10.8,20.4-12.5,41.1-4.8,56.6c3,6,9.8,11.6,16.1,13.3c23.1,6.2,39.1-10.9,45.7-27.4c0.7-1.9,0.5-4-0.6-5.6
				c-1.1-1.7-3-2.6-5-2.6c0,0-10.3,0-17.9,0c2-7.6,4.4-17.1,5.8-22.2c7.1,0,45.1,0,56.1,0c-1.5,6-3.3,10.6-5.6,16.3
				c-12.4,29.8-25.4,50.3-51.2,60.8c-11.1,4.5-28.8,7.4-43.4,3.8c-16.8-4.1-27.5-14.2-31.8-30c-1.4-5.2-2-10.8-2-16.6
				c0-27.7,14.8-60,31.8-76.3c0.1-0.1,0.2-0.2,0.2-0.2C63.7,39.2,79.9,30,102.2,26.3C125.7,22.4,142.2,30.5,148.7,49z M37.5,49.7
				c0.1-0.1,0.1-0.1,0.2-0.2c0,0,0.1-0.1,0.1-0.1C37.6,49.6,37.5,49.6,37.5,49.7z"/>
			<path d="M388.2,30.6c31.2-1.1,20.2,49.6-4.1,53.9C349.4,90.5,357.3,31.7,388.2,30.6z"/>
			<path fill="#FFFFFF" d="M388,24.6c-12,0.4-22.4,7.8-28.3,20.4c-2.9,6.2-4.4,12.8-4.4,19c0,7,1.9,13.5,5.5,18.3
				c5.4,7.1,14,10,24.3,8.2c18-3.1,29.9-26.1,28-43.8C411.7,32.5,402.1,24.1,388,24.6z M370.4,75c-4.1-5.5-4.1-15.9,0.2-24.8
				c1.9-3.9,7.4-13.1,17.9-13.5c0,0,0,0,0,0c2.9-0.1,11.6-0.4,12.8,11.3c1.3,12.2-6.9,28.7-18.2,30.7C377.3,79.6,373,78.4,370.4,75z
				 M388,24.6C388,24.6,388,24.6,388,24.6C388,24.6,388,24.6,388,24.6z"/>
			<polygon points="436.7,174.5 411.5,174.5 403,144.5 393.1,174.7 365.8,174.6 392.6,94 419.3,94.1 427.6,124.5 437.7,94.1 
				463.5,94.1 			"/>
			<path fill="#FFFFFF" d="M386.9,92.2l-26.8,80.6c-0.6,1.8-0.3,3.8,0.8,5.4s2.9,2.5,4.9,2.5l27.3,0.1c2.6,0,4.9-1.7,5.7-4.1
				c0,0,2-6.1,3.8-11.6c1.5,5.2,3.2,11.2,3.2,11.2c0.7,2.6,3.1,4.3,5.8,4.3h25.2c2.6,0,4.9-1.7,5.7-4.1L469.2,96
				c0.6-1.8,0.3-3.8-0.8-5.4c-1.1-1.6-2.9-2.5-4.9-2.5h-25.8c-2.6,0-4.9,1.7-5.7,4.1c0,0-2,6.1-3.8,11.5c-1.4-5.2-3.1-11.2-3.1-11.2
				c-0.7-2.6-3.1-4.4-5.8-4.4l-26.7,0C390,88,387.7,89.7,386.9,92.2z M396.9,100c4.8,0,12.8,0,17.8,0c1.8,6.5,7.1,26,7.1,26
				c0.7,2.6,3,4.3,5.6,4.4c2.6,0.1,5-1.6,5.9-4.1c0,0,6.7-20.2,8.7-26.3c3.7,0,7.4,0,13.2,0c-4,12.1-20.6,61.8-22.8,68.5
				c-4.7,0-11.5,0-16.3,0c-1.8-6.4-7.3-25.7-7.3-25.7c-0.7-2.5-3-4.3-5.7-4.3c-2.6,0-5,1.6-5.8,4.1c0,0-6.5,19.8-8.5,26
				c-3.9,0-8.4,0-14.6,0C378.1,156.6,394.7,106.7,396.9,100z"/>
			<polygon points="383.8,93.6 349,198.7 322.5,198.6 357.5,93.6 			"/>
			<path fill="#FFFFFF" d="M357.5,87.6c-2.6,0-4.9,1.7-5.7,4.1l-35,105c-0.6,1.8-0.3,3.8,0.8,5.4c1.1,1.6,2.9,2.5,4.9,2.5l26.5,0.1
				c2.6,0,4.9-1.7,5.7-4.1l34.9-105.1c0.6-1.8,0.3-3.8-0.8-5.4c-1.1-1.6-2.9-2.5-4.9-2.5H357.5z M375.5,99.6
				c-4.3,12.9-28.6,86.1-30.9,93.1c-3.8,0-7.9,0-13.8,0c4.3-12.9,28.7-86.1,31-93.1C365.6,99.6,369.6,99.6,375.5,99.6z"/>
			<polygon fill="#FFFFFF" points="167.4,94.1 193,94 167.8,169.5 140.5,169.5 			"/>
			<path fill="#FFFFFF" d="M193,88l-25.6,0.1c-2.5,0-4.8,1.6-5.6,4l-26.9,75.4c-0.7,1.8-0.4,3.9,0.7,5.5c1.1,1.6,2.9,2.5,4.9,2.5
				l27.3,0c2.6,0,4.9-1.6,5.7-4.1l25.2-75.5c0.6-1.8,0.3-3.8-0.8-5.4C196.8,88.9,194.9,88,193,88z M184.7,100
				c-4,11.9-19,57-21.2,63.5c-3.9,0-8.3,0-14.5,0c4.3-12,20.3-57.1,22.6-63.5C175.2,100.1,178.9,100,184.7,100z"/>
			<polygon points="246.8,169.7 221.8,169.7 212.6,137.7 202,169.6 177.2,169.6 202.2,94.1 227.3,94 236.6,127.5 247.6,93.9 
				272,93.9 			"/>
			<path fill="#FFFFFF" d="M247.6,87.9c-2.6,0-4.9,1.7-5.7,4.1c0,0-2.5,7.5-4.9,14.7c-2-7.1-4-14.4-4-14.4c-0.7-2.6-3.1-4.4-5.8-4.4
				l-25.1,0.1c-2.6,0-4.9,1.7-5.7,4.1l-25,75.6c-0.6,1.8-0.3,3.8,0.8,5.4c1.1,1.6,2.9,2.5,4.9,2.5H202c2.6,0,4.9-1.7,5.7-4.1
				c0,0,2.3-6.9,4.5-13.5c1.9,6.5,3.9,13.4,3.9,13.4c0.7,2.6,3.1,4.3,5.8,4.3h25c2.6,0,4.9-1.7,5.7-4.1l25.2-75.8
				c0.6-1.8,0.3-3.8-0.8-5.4c-1.1-1.6-2.9-2.5-4.9-2.5H247.6z M263.6,99.9c-4,11.9-19,57.2-21.2,63.8c-4.6,0-11.3,0-16.1,0
				c-1.9-6.5-8-27.6-8-27.6c-0.7-2.5-3-4.3-5.7-4.3c-2.6,0-5,1.6-5.8,4.1c0,0-7.1,21.5-9.2,27.8c-3.5,0-6.8,0-12.2,0
				c3.9-11.9,18.8-57,21-63.6c4.6,0,11.4,0,16.2,0c1.8,6.6,8.1,29.1,8.1,29.1c0.7,2.5,3,4.3,5.6,4.4c2.6,0.1,5-1.6,5.8-4.1
				c0,0,7.6-23.1,9.7-29.4C255.4,99.9,258.4,99.9,263.6,99.9z"/>
			<polygon fill="#FFFFFF" points="320.7,169.5 328.9,145.2 306.5,145.2 351.4,94 284.7,94.1 276.2,119.3 296.2,119.3 254.1,169.5 
							"/>
			<path fill="#FFFFFF" d="M351.4,88l-66.7,0.1c-2.6,0-4.9,1.6-5.7,4.1l-8.5,25.2c-0.6,1.8-0.3,3.8,0.8,5.4c1.1,1.6,2.9,2.5,4.9,2.5
				c0,0,3.9,0,7.1,0c-10.7,12.7-33.8,40.4-33.8,40.4c-0.9,1.1-1.4,2.5-1.4,3.9c0,0.9,0.2,1.7,0.6,2.5c1,2.1,3.1,3.5,5.4,3.5h66.6
				c2.6,0,4.9-1.6,5.7-4.1l8.2-24.4c0.2-0.6,0.3-1.3,0.3-1.9c0-1.2-0.4-2.5-1.1-3.5c-1.1-1.6-2.9-2.5-4.9-2.5c0,0-4.8,0-9.2,0
				c11.3-12.9,36.2-41.2,36.2-41.2c1-1.1,1.5-2.5,1.5-4c0-0.8-0.2-1.7-0.5-2.5C355.9,89.4,353.8,88,351.4,88z M338.2,100
				c-11.4,12.9-36.2,41.2-36.2,41.2c-1,1.1-1.5,2.5-1.5,4c0,0.8,0.2,1.7,0.5,2.5c1,2.1,3.1,3.5,5.5,3.5c0,0,7.5,0,14.1,0
				c-1.8,5.4-3,8.9-4.2,12.4c-6,0-34,0-49.4,0c10.7-12.7,33.8-40.4,33.8-40.4c0.9-1.1,1.4-2.5,1.4-3.9c0-0.9-0.2-1.7-0.6-2.5
				c-1-2.1-3.1-3.5-5.4-3.5c0,0-6,0-11.6,0c1.9-5.7,3.3-9.7,4.5-13.2C295,100.1,322.5,100,338.2,100z"/>
			<polygon points="561.1,94 607.6,94 601.2,114 580.3,114 577,123.6 597.6,123.6 592.4,139.1 571.9,139.1 568.8,148.6 589.5,148.6 
				582.4,169.5 536,169.5 			"/>
			<path fill="#FFFFFF" d="M561.1,88c-2.6,0-4.9,1.7-5.7,4.1l-25.1,75.5c-0.6,1.8-0.3,3.8,0.8,5.4c1.1,1.6,2.9,2.5,4.9,2.5h46.5
				c2.6,0,4.9-1.6,5.7-4.1l7-20.9c0.2-0.6,0.3-1.3,0.3-1.9c0-1.2-0.4-2.5-1.1-3.5c-0.1-0.1-0.2-0.2-0.3-0.3c1.9-0.5,3.4-1.9,4-3.8
				l5.2-15.5c0.2-0.6,0.3-1.3,0.3-1.9c0-1.2-0.4-2.5-1.1-3.5c-0.1-0.1-0.2-0.2-0.3-0.3c2.2-0.4,4.1-1.8,4.8-4l6.3-19.9
				c0.2-0.6,0.3-1.2,0.3-1.8c0-1.3-0.4-2.5-1.2-3.5c-1.1-1.5-2.9-2.5-4.8-2.5H561.1z M599.4,100c-1.2,3.8-1.7,5.3-2.5,7.9
				c-5.5,0-16.6,0-16.6,0c-2.6,0-4.8,1.6-5.7,4.1l-3.2,9.6c-0.2,0.6-0.3,1.3-0.3,1.9c0,1.2,0.4,2.5,1.1,3.5c1.1,1.6,2.9,2.5,4.9,2.5
				c0,0,6.3,0,12.2,0c-0.6,1.7-0.7,2.1-1.2,3.5c-5.4,0-16.2,0-16.2,0c-2.6,0-4.9,1.7-5.7,4.1l-3.1,9.5c-0.2,0.6-0.3,1.2-0.3,1.9
				c0,1.2,0.4,2.5,1.1,3.5c1.1,1.6,2.9,2.5,4.9,2.5c0,0,6.4,0,12.3,0c-1.4,4.2-2.1,6.1-3,8.9c-5.7,0-23.9,0-33.8,0
				c4-11.9,19-57,21.1-63.5C571.2,100,589.5,100,599.4,100z"/>
			<path d="M543.9,113.4c0.4-14.7-14.4-23.2-30.2-22.7c-24.8,0.7-51.9,14.6-56.7,49.1c-2.3,58.2,62.8,31.5,77.8,6.8
				c4-6.5,7.1-13.3,7.8-19.9h-42.3l-5.4,17.8l7.9,0c0,0-1,2.3-3.4,3.5c-22.2,11.4-13.6-28.4,5.5-30.8c4.2-0.5,9,2.2,10.8,4.4
				C515.7,121.6,531.2,116.1,543.9,113.4z"/>
			<path fill="#FFFFFF" d="M513.6,84.7c-14.7,0.4-28.6,5.1-39.3,13.1c-12.8,9.6-20.8,23.8-23.2,41.2c0,0.2,0,0.4-0.1,0.6
				c-1.1,28.5,13.2,37.1,21.8,39.7c22,6.6,55.9-11,67.2-29.5c5.2-8.6,8-15.7,8.6-22.4c0.2-1.7-0.4-3.4-1.5-4.6c-1.1-1.3-2.8-2-4.4-2
				c0,0-2.9,0-3.4,0c2-0.5,4-1,5.9-1.4c2.7-0.6,4.7-2.9,4.7-5.7c0-0.3,0-0.6,0-0.8c0-6.8-2.6-13-7.5-17.9
				C535.8,88.1,525,84.3,513.6,84.7z M513.9,96.7c8.2-0.2,15.6,2.2,20,6.6c1.6,1.6,2.7,3.5,3.3,5.5c-8,2-16,4.6-20.4,6
				c-3.3-2.3-8-4.1-12.8-3.5c-11.5,1.4-19.7,12.3-22.6,22.4c-2.5,8.5-1.2,15.9,3.4,19.7c3,2.5,8.4,4.4,17.2-0.1
				c4-2.1,5.8-5.7,6.1-6.4c0.4-0.8,0.5-1.6,0.5-2.5c0-1.1-0.3-2.3-1-3.3c-1.1-1.6-2.9-2.6-4.8-2.7c0.9-2.9,1.1-3.7,1.8-5.8
				c5.7,0,21.3,0,30.2,0c-1.2,3.2-2.9,6.7-5.3,10.8c-8.9,14.6-36.9,29.2-53.5,24.2c-8.8-2.7-13.3-11-13.3-24.9c0-0.8,0-1.6,0-2.4
				C467.5,109.1,492.2,97.3,513.9,96.7z"/>
			<path fill="#FFFFFF" d="M651,94.3c-19.2,0-34.1,0-34.1,0l-25,75.3h24.2l7.5-22.3l3.2,22.3l24.7-0.1l-6.8-27.9
				c0,0,12.1-2.3,17.8-8.9C675.3,115.5,668.8,95,651,94.3z M639.1,125.8c-1.9,0.8-4.8,0.7-8.8,0.7c1.7-4.8,2.4-7.2,4.3-12
				C646.4,113.2,644.9,122.2,639.1,125.8z"/>
			<path fill="#FFFFFF" d="M611.2,92.4l-25,75.3c-0.6,1.8-0.3,3.8,0.8,5.4c1.1,1.6,2.9,2.5,4.9,2.5h24.2c2.3,0,4.4-1.4,5.4-3.5
				c1,2.1,3,3.5,5.4,3.5l24.7-0.1c1.8,0,3.6-0.9,4.7-2.3c0.8-1.1,1.3-2.4,1.3-3.7c0-0.5-0.1-1-0.2-1.4c0,0-3.7-15-5.4-22.2
				c4.7-1.6,11-4.4,15.1-9.1c0.1-0.1,0.2-0.3,0.3-0.4c5.2-7,7.9-14.9,7.9-22.4c0-4.3-0.9-8.4-2.7-12.1c-4-8.3-11.7-13.2-21.3-13.6
				c-0.1,0-0.2,0-0.2,0l-34.1,0C614.4,88.3,612.1,89.9,611.2,92.4z M621.3,100.3c6.6,0,29.3,0,29.6,0c6.4,0.3,9.5,3.8,10.9,6.8
				c1,2.1,1.5,4.5,1.5,7c0,4.8-1.9,10.1-5.4,14.9c-3.6,3.9-11.5,6.2-14.3,6.8c-1.6,0.3-3,1.3-3.9,2.7c-0.6,1-0.9,2.1-0.9,3.2
				c0,0.5,0.1,0.9,0.2,1.4c0,0,3.1,12.5,5,20.5c-5.1,0-7.9,0-11.9,0c-0.9-6.1-2.5-17.1-2.5-17.1c-0.4-2.7-2.6-4.9-5.4-5.1
				c-2.8-0.3-5.3,1.4-6.2,4.1c0,0-4.3,12.7-6.2,18.2c-3.4,0-6.4,0-11.6,0C604.2,151.7,619.1,106.8,621.3,100.3z"/>
			<path fill="#FFFFFF" d="M634.1,108.4c-2.2,0.2-4.1,1.7-5,3.7c-1.5,3.7-2.3,6-3.3,8.9l-1.2,3.4c-0.6,1.8-0.3,3.9,0.8,5.4
				c1.1,1.6,2.9,2.5,4.9,2.5l1.5,0c3.9,0,7,0,9.8-1.2c0.3-0.1,0.5-0.2,0.7-0.4c5.7-3.5,8.5-10,6.6-15.2
				C648.1,113.1,644.9,107.3,634.1,108.4z"/>
		</g>
		<g>
			<path d="M101.2,20.4c28.4-4.7,46.4,7.3,53.2,26.6c2.1,6,2.9,11.3,3.4,19.1c-17.1,7.3-17.9,7.3-36.8,14.6
				c-1.3-9.8-6.3-16.3-10.9-19.4c-4.6-3.1-12.2-3.8-15-3.4c-25.9,3.6-57,53-41.6,83.9c2.1,4.3,7.3,8.9,12.3,10.2
				c20.3,5.5,33.4-11,38.6-23.8c-9.8,0-25.6,0.1-25.6,0.1l8.9-34.2c0,0,45.5,0,68.2,0c-2,10.6-4.5,17-7.5,24.6
				c-13.6,32.5-27.9,53.4-54.6,64.1c-12.6,5.1-31.4,7.9-47.1,4.1c-61.8-15-38-101.2-4.8-133C57.8,36.8,74.9,24.8,101.2,20.4z"/>
			<path fill="#C51315" d="M388.2,30.6c31.2-1.1,20.2,49.6-4.1,53.9C349.4,90.5,357.3,31.7,388.2,30.6z"/>
			<polygon fill="#C51315" points="436.7,174.5 411.5,174.5 403,144.5 393.1,174.7 365.8,174.6 392.6,94 419.3,94 427.6,124.5 
				437.7,94.1 463.5,94.1 			"/>
			<polygon fill="#C51315" points="383.8,93.6 349,198.7 322.5,198.6 357.5,93.6 			"/>
			<polygon points="167.4,94 193,94 167.8,169.5 140.5,169.5 			"/>
			<polygon points="246.8,169.7 221.8,169.7 212.6,137.7 202,169.6 177.2,169.6 202.2,94 227.3,94 236.6,127.5 247.6,93.9 272,93.9 
							"/>
			<polygon points="320.7,169.5 328.9,145.2 306.5,145.2 351.4,94 284.7,94 276.2,119.3 296.2,119.3 254.1,169.5 			"/>
			<polygon points="561.1,94 607.6,94 601.2,114 580.3,114 577,123.6 597.6,123.6 592.4,139.1 571.9,139.1 568.8,148.6 589.5,148.6 
				582.4,169.5 536,169.5 			"/>
			<path d="M543.9,113.4c0.4-14.7-14.4-23.2-30.2-22.7c-24.8,0.7-51.9,14.6-56.7,49.1c-2.3,58.2,62.8,31.5,77.8,6.8
				c4-6.5,7.1-13.3,7.8-19.9h-42.3l-5.4,17.8l7.9,0c0,0-1,2.3-3.4,3.5c-22.2,11.4-13.6-28.4,5.5-30.8c4.2-0.5,9,2.2,10.8,4.4
				C515.7,121.6,531.2,116.1,543.9,113.4z"/>
			<path d="M651,94.3c-19.2,0-34.1,0-34.1,0l-25,75.3h24.2l7.5-22.3l3.2,22.3l24.7,0l-6.8-28c0,0,12.1-2.3,17.8-8.9
				C675.3,115.5,668.8,95,651,94.3z M639.1,125.8c-1.9,0.8-4.8,0.7-8.8,0.7c1.7-4.8,2.4-7.2,4.3-12
				C646.4,113.2,644.9,122.2,639.1,125.8z"/>
		</g>
	</g>
</g>
<g id="Balken" display="none">
	<rect y="208.3" display="inline" width="677.5" height="28"/>
</g>
<g id="Logo-weiss" display="none">
	<g display="inline">
		<g>
			<path stroke="#000000" stroke-width="12" stroke-linejoin="round" d="M101.4,20.2c28.4-4.7,46.4,7.3,53.2,26.6
				c2.1,6,2.9,11.3,3.4,19.1c-17.1,7.3-17.9,7.3-36.8,14.6c-1.3-9.8-6.3-16.3-10.9-19.4c-4.6-3.1-12.2-3.8-15-3.4
				c-25.9,3.6-57,53-41.6,83.9c2.1,4.3,7.3,8.9,12.3,10.2c20.3,5.5,33.4-11,38.6-23.8c-9.8,0-25.6,0.1-25.6,0.1l8.9-34.2
				c0,0,45.5,0,68.2,0c-2,10.6-4.5,17-7.5,24.6c-13.6,32.5-27.9,53.4-54.6,64.1c-12.6,5.1-31.4,7.9-47.1,4.1
				c-61.8-15-38-101.2-4.8-133C58,36.6,75.1,24.6,101.4,20.2z"/>
			<path stroke="#000000" stroke-width="12" stroke-linejoin="round" d="M388.4,30.4c31.2-1.1,20.2,49.6-4.1,53.9
				C349.6,90.4,357.5,31.5,388.4,30.4z"/>
			<polygon stroke="#000000" stroke-width="12" stroke-linejoin="round" points="436.9,174.4 411.7,174.4 403.2,144.4 393.3,174.5 
				366,174.5 392.8,93.9 419.5,93.9 427.8,124.3 437.9,93.9 463.7,93.9 			"/>
			<polygon stroke="#000000" stroke-width="12" stroke-linejoin="round" points="384,93.4 349.2,198.5 322.7,198.5 357.7,93.4 			
				"/>
			<polygon stroke="#000000" stroke-width="12" stroke-linejoin="round" points="167.6,93.9 193.2,93.9 168,169.4 140.7,169.3 			
				"/>
			<polygon stroke="#000000" stroke-width="12" stroke-linejoin="round" points="247,169.5 222,169.5 212.8,137.6 202.2,169.5 
				177.4,169.5 202.4,93.9 227.5,93.9 236.7,127.3 247.8,93.8 272.2,93.8 			"/>
			<polygon stroke="#000000" stroke-width="12" stroke-linejoin="round" points="320.9,169.4 329.1,145 306.7,145 351.6,93.9 
				284.9,93.9 276.4,119.2 296.4,119.1 254.3,169.4 			"/>
			<polygon stroke="#000000" stroke-width="12" stroke-linejoin="round" points="561.3,93.9 607.8,93.9 601.4,113.8 580.5,113.9 
				577.2,123.5 597.8,123.5 592.6,138.9 572.1,139 569,148.5 589.7,148.5 582.6,169.4 536.2,169.4 			"/>
			<path stroke="#000000" stroke-width="12" stroke-linejoin="round" d="M544.1,113.2c0.4-14.7-14.4-23.2-30.2-22.7
				c-24.8,0.7-51.9,14.6-56.7,49.1c-2.3,58.2,62.8,31.5,77.8,6.8c4-6.5,7.1-13.3,7.8-19.9l-42.3,0l-5.4,17.8l7.9,0
				c0,0-1,2.3-3.4,3.5c-22.2,11.4-13.6-28.4,5.5-30.8c4.2-0.5,9,2.2,10.8,4.4C515.8,121.5,531.4,116,544.1,113.2z"/>
			<path stroke="#000000" stroke-width="12" stroke-linejoin="round" d="M651.2,94.1c-19.2,0-34.1,0-34.1,0l-25,75.3h24.2l7.5-22.3
				l3.2,22.3l24.7-0.1l-6.8-27.9c0,0,12.1-2.3,17.8-8.9C675.5,115.3,669,94.8,651.2,94.1z M639.3,125.6c-1.9,0.8-4.8,0.7-8.8,0.7
				c1.7-4.8,2.4-7.2,4.3-12C646.6,113.1,645.1,122,639.3,125.6z"/>
		</g>
		<g>
			<path fill="#FFFFFF" d="M101.4,20.2c28.4-4.7,46.4,7.3,53.2,26.6c2.1,6,2.9,11.3,3.4,19.1c-17.1,7.3-17.9,7.3-36.8,14.6
				c-1.3-9.8-6.3-16.3-10.9-19.4c-4.6-3.1-12.2-3.8-15-3.4c-25.9,3.6-57,53-41.6,83.9c2.1,4.3,7.3,8.9,12.3,10.2
				c20.3,5.5,33.4-11,38.6-23.8c-9.8,0-25.6,0.1-25.6,0.1l8.9-34.2c0,0,45.5,0,68.2,0c-2,10.6-4.5,17-7.5,24.6
				c-13.6,32.5-27.9,53.4-54.6,64.1c-12.6,5.1-31.4,7.9-47.1,4.1c-61.8-15-38-101.2-4.8-133C58,36.6,75.1,24.6,101.4,20.2z"/>
			<path fill="#C51315" d="M388.4,30.4c31.2-1.1,20.2,49.6-4.1,53.9C349.6,90.4,357.5,31.5,388.4,30.4z"/>
			<polygon fill="#C51315" points="436.9,174.4 411.7,174.4 403.2,144.4 393.3,174.5 366,174.5 392.8,93.9 419.5,93.9 427.8,124.3 
				437.9,93.9 463.7,93.9 			"/>
			<polygon fill="#C51315" points="384,93.4 349.2,198.5 322.7,198.5 357.7,93.4 			"/>
			<polygon fill="#FFFFFF" points="167.6,93.9 193.2,93.9 168,169.4 140.7,169.3 			"/>
			<polygon fill="#FFFFFF" points="247,169.5 222,169.5 212.8,137.6 202.2,169.5 177.4,169.5 202.4,93.9 227.5,93.9 236.7,127.3 
				247.8,93.8 272.2,93.8 			"/>
			<polygon fill="#FFFFFF" points="320.9,169.4 329.1,145 306.7,145 351.6,93.9 284.9,93.9 276.4,119.2 296.4,119.1 254.3,169.4 			
				"/>
			<polygon fill="#FFFFFF" points="561.3,93.9 607.8,93.9 601.4,113.8 580.5,113.9 577.2,123.5 597.8,123.5 592.6,138.9 572.1,139 
				569,148.5 589.7,148.5 582.6,169.4 536.2,169.4 			"/>
			<path fill="#FFFFFF" d="M544.1,113.2c0.4-14.7-14.4-23.2-30.2-22.7c-24.8,0.7-51.9,14.6-56.7,49.1c-2.3,58.2,62.8,31.5,77.8,6.8
				c4-6.5,7.1-13.3,7.8-19.9l-42.3,0l-5.4,17.8l7.9,0c0,0-1,2.3-3.4,3.5c-22.2,11.4-13.6-28.4,5.5-30.8c4.2-0.5,9,2.2,10.8,4.4
				C515.8,121.5,531.4,116,544.1,113.2z"/>
			<path fill="#FFFFFF" d="M651.2,94.1c-19.2,0-34.1,0-34.1,0l-25,75.3h24.2l7.5-22.3l3.2,22.3l24.7,0l-6.8-28
				c0,0,12.1-2.3,17.8-8.9C675.5,115.3,669,94.8,651.2,94.1z M639.3,125.6c-1.9,0.8-4.8,0.7-8.8,0.7c1.7-4.8,2.4-7.2,4.3-12
				C646.6,113.1,645.1,122,639.3,125.6z"/>
		</g>
	</g>
</g>
<g id="Filialen-Rot" display="none">
	<g display="inline">
		<path fill="#C51315" d="M4.2,212.1h6.2c3.2,0,5.8,1.6,5.8,5.9c0,2.6-0.8,3.6-2.7,4.4v0.1c0.3,0.2,0.6,0.5,0.9,1l3.1,5.5h-5.9
			l-2.2-5.4H9.2v5.4h-5V212.1z M9.2,219.6h0.4c0.8,0,1.7-0.2,1.7-1.4c0-1.3-0.8-1.5-1.6-1.5H9.2V219.6z"/>
		<path fill="#C51315" d="M23.4,213.4c0,2-1.3,2.8-2.6,2.8c-1.4,0-2.6-0.9-2.6-2.8c0-1.7,1.1-2.8,2.6-2.8
			C22.3,210.7,23.4,211.7,23.4,213.4z M18.4,217.1h4.8V229h-4.8V217.1z"/>
		<path fill="#C51315" d="M45.5,227.3h-0.1c-0.8,1.2-1.9,2-3.2,2c-2.7,0-4.1-3.3-4.1-6.1c0-3,1.3-6.3,4.1-6.3c1.1,0,2.3,0.8,3,1.9
			h0.2l-0.2-2.8v-5h4.8V229h-4.5L45.5,227.3z M42.8,223.1c0,0.9,0.4,1.7,1.2,1.7c0.7,0,1.2-0.9,1.2-1.8c0-0.8-0.5-1.6-1.2-1.6
			C43.2,221.4,42.8,222.2,42.8,223.1z"/>
		<path fill="#C51315" d="M51.1,232.4l10.1-21.6H64l-10.1,21.6H51.1z"/>
		<path fill="#C51315" d="M65.6,212.1h5.1V229h-5.1V212.1z"/>
		<path fill="#C51315" d="M88.8,212.1h10.7v5.5l-2.8-0.2V229h-5.1v-11.6l-2.8,0.2V212.1z"/>
		<path fill="#C51315" d="M148,232.4l10.1-21.6h2.8l-10.1,21.6H148z"/>
		<path fill="#C51315" d="M162.4,212.1h5.1v11.5h4.3v5.4h-9.4V212.1z"/>
		<path fill="#C51315" d="M178.3,213.4c0,2-1.3,2.8-2.6,2.8c-1.4,0-2.6-0.9-2.6-2.8c0-1.7,1.1-2.8,2.6-2.8
			C177.2,210.7,178.3,211.7,178.3,213.4z M173.2,217.1h4.8V229h-4.8V217.1z"/>
		<path fill="#C51315" d="M214.7,223l0.3,0.2c0.9,0.9,2,1.5,3.2,1.5c0.5,0,1.3-0.2,1.3-1s-0.7-0.8-1.1-0.9l-1-0.2
			c-2-0.4-3.7-1.8-3.7-4.5c0-4,3-6.3,6.1-6.3c1.6,0,3.1,0.5,4.4,1.5l-1.4,4.3c-0.9-0.7-1.9-1.3-3-1.3c-0.4,0-1.1,0.2-1.1,0.9
			c0,0.6,0.6,0.7,1,0.8l1.2,0.3c2.2,0.6,3.7,2,3.7,4.8c0,4-3.1,6-6.1,6c-1.8,0-3.8-0.6-5.4-1.5L214.7,223z"/>
		<path fill="#C51315" d="M239.5,210.8h4.8V229h-4.8V210.8z"/>
		<path fill="#C51315" d="M257.6,210.8h4.8v5l-0.2,2.8h0.2c0.7-1.1,1.9-1.9,3-1.9c2.8,0,4.1,3.4,4.1,6.3c0,2.8-1.4,6.1-4.1,6.1
			c-1.3,0-2.4-0.8-3.2-2H262l0.1,1.8h-4.5V210.8z M262.2,223.1c0,0.9,0.4,1.7,1.2,1.7c0.7,0,1.2-0.9,1.2-1.8c0-0.8-0.5-1.6-1.2-1.6
			C262.6,221.4,262.2,222.2,262.2,223.1z"/>
		<path fill="#C51315" d="M316.7,223l0.3,0.2c0.9,0.9,2,1.5,3.2,1.5c0.5,0,1.3-0.2,1.3-1s-0.7-0.8-1.1-0.9l-1-0.2
			c-2-0.4-3.7-1.8-3.7-4.5c0-4,3-6.3,6.1-6.3c1.6,0,3.1,0.5,4.4,1.5l-1.4,4.3c-0.9-0.7-1.9-1.3-3-1.3c-0.4,0-1.1,0.2-1.1,0.9
			c0,0.6,0.6,0.7,1,0.8l1.2,0.3c2.2,0.6,3.7,2,3.7,4.8c0,4-3.1,6-6.1,6c-1.8,0-3.8-0.6-5.4-1.5L316.7,223z"/>
		<path fill="#C51315" d="M344,212.1h6.5c3.3,0,5.7,2,5.7,6.2c0,3.5-1.8,5.6-4.6,5.6h-2.6v5.1H344V212.1z M348.9,219.7h0.5
			c0.9,0,1.9-0.2,1.9-1.5c0-1.3-1-1.4-1.9-1.4h-0.5V219.7z"/>
		<path fill="#C51315" d="M369,223.2c0,3.9-2.9,6.1-6,6.1c-3.1,0-6-2.1-6-6.1c0-4.2,2.7-6.4,6-6.4C366.3,216.8,369,219,369,223.2z
			 M362.3,214.2c0,1-0.7,1.9-1.5,1.9c-0.9,0-1.5-0.8-1.5-1.9c0-1,0.7-1.9,1.5-1.9C361.6,212.3,362.3,213.1,362.3,214.2z
			 M361.7,223.1c0,0.9,0.6,1.6,1.3,1.6c0.7,0,1.3-0.7,1.3-1.6c0-1-0.5-1.7-1.3-1.7C362.2,221.4,361.7,222.2,361.7,223.1z
			 M366.9,214.2c0,1-0.7,1.9-1.5,1.9c-0.9,0-1.5-0.8-1.5-1.9c0-1,0.7-1.9,1.5-1.9C366.2,212.3,366.9,213.1,366.9,214.2z"/>
		<path fill="#C51315" d="M370.8,210.8h4.8V229h-4.8V210.8z"/>
		<path fill="#C51315" d="M421,212.1h5.1V229H421V212.1z"/>
		<path fill="#C51315" d="M464.3,210.8h4.8v5l-0.2,2.8h0.2c0.7-1.1,1.9-1.9,3-1.9c2.8,0,4.1,3.4,4.1,6.3c0,2.8-1.4,6.1-4.1,6.1
			c-1.3,0-2.4-0.8-3.2-2h-0.1l0.1,1.8h-4.5V210.8z M469,223.1c0,0.9,0.4,1.7,1.2,1.7c0.7,0,1.2-0.9,1.2-1.8c0-0.8-0.5-1.6-1.2-1.6
			C469.4,221.4,469,222.2,469,223.1z"/>
		<path fill="#C51315" d="M509.9,210.8h4.8v10.7h0.1l0.4-1l1.5-3.4h5.6l-3.6,5.8l3.8,6.1h-5.7l-2-4.4h-0.1v4.4h-4.8V210.8z"/>
		<path fill="#C51315" d="M533,212.1h5l-0.1,7.3h0.1c0.1-0.7,0.4-1.3,0.7-1.9l2.5-5.4h5.6l-4.4,8.2l4.9,8.7h-5.9l-2.4-5.1
			c-0.3-0.7-0.7-1.3-0.9-2h-0.1l0.1,7.1h-5V212.1z"/>
		<path fill="#C51315" d="M581.2,227.3h-0.1c-0.8,1.2-1.9,2-3.2,2c-2.7,0-4.1-3.3-4.1-6.1c0-3,1.3-6.3,4.1-6.3c1.1,0,2.3,0.8,3,1.9
			h0.2l-0.2-2.8v-5h4.8V229h-4.5L581.2,227.3z M578.5,223.1c0,0.9,0.4,1.7,1.2,1.7c0.7,0,1.2-0.9,1.2-1.8c0-0.8-0.5-1.6-1.2-1.6
			C578.9,221.4,578.5,222.2,578.5,223.1z"/>
		<path fill="#C51315" d="M587.6,210.8h4.8V229h-4.8V210.8z"/>
		<path fill="#C51315" d="M617.7,212.1l-5.4,16.9h-4.3l-5.4-16.9h5.3l1.9,7.7c0.2,0.8,0.4,1.7,0.4,2.5h0.1c0-0.9,0.1-1.7,0.4-2.5
			l1.9-7.7H617.7z"/>
		<path fill="#C51315" d="M624,213.4c0,2-1.3,2.8-2.6,2.8c-1.4,0-2.6-0.9-2.6-2.8c0-1.7,1.1-2.8,2.6-2.8
			C622.8,210.7,624,211.7,624,213.4z M618.9,217.1h4.8V229h-4.8V217.1z"/>
		<path fill="#C51315" d="M626,210.8h4.8V229H626V210.8z"/>
		<path fill="#C51315" d="M633,210.8h4.8V229H633V210.8z"/>
		<path fill="#C51315" d="M662.7,210.8h4.8v5l-0.2,3.3h0.1c0.9-1.3,1.8-2.3,3.2-2.3c2.5,0,3.3,2.2,3.3,4.9v7.3h-4.7v-6.1
			c0-0.6-0.1-1.4-0.8-1.4c-0.7,0-0.9,0.7-0.9,1.4v6.1h-4.8V210.8z"/>
	</g>
</g>
<g id="Filialen-Weiss" display="none">
	<g display="inline">
		<path fill="#FFFFFF" d="M23.4,215.1c0,1.6-1.3,2.3-2.6,2.3c-1.4,0-2.6-0.7-2.6-2.3c0-1.4,1.1-2.3,2.6-2.3
			C22.3,212.8,23.4,213.7,23.4,215.1z M18.4,218.1h4.8v9.8h-4.8V218.1z"/>
		<path fill="#FFFFFF" d="M178.3,215.1c0,1.6-1.3,2.3-2.6,2.3c-1.4,0-2.6-0.7-2.6-2.3c0-1.4,1.1-2.3,2.6-2.3
			C177.2,212.8,178.3,213.7,178.3,215.1z M173.2,218.1h4.8v9.8h-4.8V218.1z"/>
		<path fill="#FFFFFF" d="M624,215.1c0,1.6-1.3,2.3-2.6,2.3c-1.4,0-2.6-0.7-2.6-2.3c0-1.4,1.1-2.3,2.6-2.3
			C622.8,212.8,624,213.7,624,215.1z M618.9,218.1h4.8v9.8h-4.8V218.1z"/>
	</g>
</g>
<g id="Hinweise">
	<g>
		<path fill="#C51315" d="M697.9,95l51.3,0l-7,21.4l-23.3,0l-2.5,7.7l20.4,0l-6.3,19.4l-20.4,0l-8.5,26.1l-28,0L697.9,95z"/>
		<path fill="#C51315" d="M768.7,162.7h-0.6c-6.4,4.9-11.7,8.1-19.1,8.1c-14.6,0-18-14.5-13.9-27.2c4.3-13.3,17.2-27.7,32.5-27.7
			c6.5,0,11.1,2.3,13.3,7.4h0.6l1.2-6.2l25.7,0l-17.1,52.5l-25.7,0L768.7,162.7z M765.5,150.8c5,0,8.3-3.9,9.6-7.9
			c1.3-4.1-0.6-7-4.7-7c-4.2,0-7.9,3.4-9.2,7.2C759.9,147.2,760.8,150.8,765.5,150.8z"/>
		<path fill="#C51315" d="M822.6,89.4l26.2,0l-7.2,22.2l-6,14.5l0.4,0c6.7-5.6,13.2-10.2,20.7-10.2c13.4,0,15,9.9,11.2,21.5
			l-10.5,32.2l-25.6,0l8.8-27.1c0.9-2.8,1.6-6.2-2.1-6.2c-4.1,0-5.9,3-7,6.2l-8.8,27.1l-26.2,0L822.6,89.4z"/>
		<path fill="#C51315" d="M915.9,141.9c-2.2-1.6-3.7-2.9-7.1-2.9c-6.8,0-11.5,3.9-13.7,10.5l-6.6,20.2l-26.2,0l17.1-52.5l26.2,0
			l-2.9,7h0.6c6.9-6.9,12.2-8.4,21-8.2L915.9,141.9z"/>
		<path fill="#C51315" d="M961,141.9c-2.2-1.6-3.7-2.9-7.1-2.9c-6.8,0-11.5,4-13.7,10.5l-6.6,20.2l-26.2,0l17.1-52.5l26.2,0l-2.9,7
			l0.6,0c6.9-6.9,12.2-8.4,21-8.2L961,141.9z"/>
		<path fill="#C51315" d="M993,162.8l-0.6,0c-6.4,4.9-11.7,8.1-19.1,8.1c-14.6,0-18-14.5-13.9-27.2c4.3-13.3,17.2-27.7,32.5-27.7
			c6.5,0,11.1,2.3,13.3,7.4l0.6,0l1.2-6.2l25.7,0l-17.1,52.5l-25.7,0L993,162.8z M989.9,150.9c5,0,8.3-3.9,9.6-7.9
			c1.3-4.1-0.6-7-4.7-7c-4.2,0-7.9,3.4-9.2,7.2C984.3,147.3,985.1,150.9,989.9,150.9z"/>
		<path fill="#C51315" d="M1062.3,161.9l-0.6,0c-6.1,5.3-13.5,9-20.5,9c-14.6,0-17.6-14.4-13.5-27c4.3-13.1,16.3-27.9,31.5-27.9
			c6.1,0,11.5,3.4,13.6,8.2h0.9l2.9-12.6l7.2-22.2l26.2,0l-26.1,80.2l-24.6,0L1062.3,161.9z M1053.6,143.4c-1.3,4-0.1,7.5,4.3,7.5
			c4.1,0,8.2-4.1,9.3-7.7c1.2-3.7-0.5-7.2-4.5-7.2C1058.4,136,1054.9,139.6,1053.6,143.4z"/>
	</g>
</g>
</svg>
