<svg xmlns="http://www.w3.org/2000/svg" viewBox="0 0 1109.84 323.35">
  <defs>
    <style>
      .c324cce8-b95e-45b5-97dc-0c85c084b089 {
        fill: #fff;
      }

      .caf6e9f7-7edb-40bc-ac0e-9d8c68a2637e, .eaa26bee-5836-464e-a91c-23c7c15474ad {
        fill: #c51315;
      }

      .caf6e9f7-7edb-40bc-ac0e-9d8c68a2637e {
        font-size: 104px;
        font-family: Futura-ExtraBold, Futura;
        font-weight: 700;
        letter-spacing: -0.05em;
      }
    </style>
  </defs>
  <title>Element 1</title>
  <g id="49964ce3-8ae7-4ba3-a419-7f595c43db2f" data-name="Ebene 2">
    <g id="8e8f8964-2c3c-4dc2-8c7e-849ef67a0536" data-name="Logoschwarz">
      <g>
        <g>
          <path class="c324cce8-b95e-45b5-97dc-0c85c084b089" d="M98.94,7c28.43-4.73,46.38,7.29,53.2,26.6,2.13,6,2.9,11.26,3.37,19.1C138.4,60,137.62,60,118.72,67.34c-1.34-9.78-6.27-16.34-10.87-19.41s-12.24-3.79-15-3.41c-25.92,3.58-57,53-41.61,83.9,2.13,4.29,7.31,8.89,12.28,10.23,20.29,5.48,33.45-11,38.61-23.84-9.85,0-25.65,0-25.65,0L85.3,80.68h68.21A117.68,117.68,0,0,1,146,105.23c-13.6,32.51-27.9,53.35-54.56,64.12-12.64,5.07-31.38,7.91-47.07,4.09-61.84-15.05-38-101.22-4.77-133C55.52,23.39,72.64,11.39,98.94,7Z"/>
          <path class="c324cce8-b95e-45b5-97dc-0c85c084b089" d="M98,1.09h0C73.27,5.2,54.54,15.7,35.36,36.18,16.12,54.67,0,89.88,0,121.09a75.85,75.85,0,0,0,2.44,19.65c5.39,20.07,19.4,33.39,40.51,38.53,18.33,4.46,38.78.44,50.72-4.35,29.65-12,44.58-35.59,57.87-67.37A123,123,0,0,0,159.4,81.8a6,6,0,0,0-5.89-7.12H85.3a6,6,0,0,0-5.81,4.49l-8.87,34.18a6,6,0,0,0,5.83,7.51l15.65,0c-4.86,7.24-13.65,15.65-27.07,12a15.91,15.91,0,0,1-8.47-7.11c-5.91-11.86-4.16-28.93,4.67-45.67,8.43-16,21.75-28.14,32.39-29.61,1.83-.25,7.83.41,10.9,2.46,3.28,2.19,7.18,7.34,8.26,15.23a6,6,0,0,0,8.12,4.77l12.19-4.69c8.43-3.23,12.28-4.7,24.77-10a6,6,0,0,0,3.64-5.88c-.47-7.82-1.22-13.73-3.7-20.74C149.34,7.67,127-3.74,98,1.09Zm48.54,34.52a50.78,50.78,0,0,1,2.71,13.25c-9.25,3.9-13.07,5.37-20.39,8.17L123,59.27c-2.34-6.94-6.5-12.79-11.8-16.33-6-4-15-4.94-19.2-4.36-14.69,2-30.92,16.12-41.36,35.9-10.79,20.45-12.54,41.08-4.8,56.62,3,6,9.76,11.64,16.08,13.34C85,150.68,101,133.59,107.64,117.05a6,6,0,0,0-5.56-8.24l-17.89,0c2-7.61,4.44-17.11,5.75-22.17H146A124.47,124.47,0,0,1,140.44,103c-12.45,29.76-25.38,50.35-51.25,60.79-11.1,4.46-28.83,7.37-43.4,3.83C29,163.52,18.27,153.43,14,137.62A64.1,64.1,0,0,1,12,121c0-27.74,14.75-60,31.77-76.26l.23-.23c17.51-18.75,33.72-27.9,55.94-31.6C123.4,9,139.94,17.07,146.49,35.61Z"/>
          <path d="M386,17.21c31.25-1.12,20.21,49.65-4.09,53.89C347.13,77.13,355.08,18.3,386,17.21Z"/>
          <path class="c324cce8-b95e-45b5-97dc-0c85c084b089" d="M385.76,11.22c-12,.42-22.35,7.85-28.29,20.37a44.74,44.74,0,0,0-4.39,19c0,7,1.86,13.46,5.53,18.29,5.36,7.06,14,10,24.29,8.17,18.05-3.15,29.89-26.11,28-43.76C409.46,19.15,399.81,10.71,385.76,11.22Zm-17.6,50.35c-4.15-5.45-4.09-15.9.15-24.84,1.87-3.94,7.36-13.15,17.87-13.52h0c2.86-.1,11.59-.42,12.81,11.29,1.28,12.17-6.85,28.72-18.15,30.69C375,66.2,370.75,65,368.16,61.57Zm17.59-50.35h0Z"/>
          <polygon points="434.5 161.16 409.3 161.16 400.71 131.15 390.83 161.3 363.55 161.24 390.34 80.65 417.06 80.68 425.35 111.09 435.42 80.68 461.27 80.68 434.5 161.16"/>
          <path class="c324cce8-b95e-45b5-97dc-0c85c084b089" d="M384.64,78.76l-26.79,80.59a6,6,0,0,0,5.69,7.89l27.28.06a6,6,0,0,0,5.71-4.13l3.79-11.57c1.51,5.25,3.21,11.21,3.21,11.21a6,6,0,0,0,5.77,4.35h25.2a6,6,0,0,0,5.69-4.11L467,82.57a6,6,0,0,0-5.69-7.89H435.42a6,6,0,0,0-5.7,4.11s-2,6.1-3.81,11.53c-1.43-5.22-3.06-11.22-3.06-11.22a6,6,0,0,0-5.78-4.42l-26.73,0A6,6,0,0,0,384.64,78.76Zm10,7.9,17.81,0,7.09,26a6,6,0,0,0,11.49.31s6.67-20.15,8.7-26.3H453l-22.78,68.48H413.82l-7.34-25.66a6,6,0,0,0-11.47-.22l-8.52,26-14.63,0Z"/>
          <polygon points="381.6 80.19 346.74 185.29 320.25 185.23 355.26 80.19 381.6 80.19"/>
          <path class="c324cce8-b95e-45b5-97dc-0c85c084b089" d="M355.26,74.19a6,6,0,0,0-5.69,4.1l-35,105a6,6,0,0,0,5.68,7.9l26.49.06a6,6,0,0,0,5.71-4.11L387.29,82.07a6,6,0,0,0-5.69-7.88Zm18,12c-4.29,12.92-28.56,86.07-30.88,93.09l-13.85,0,31-93.06Z"/>
          <polygon class="c324cce8-b95e-45b5-97dc-0c85c084b089" points="165.12 80.68 190.77 80.62 165.53 156.14 138.25 156.11 165.12 80.68"/>
          <path class="c324cce8-b95e-45b5-97dc-0c85c084b089" d="M190.76,74.62l-25.65.06a6,6,0,0,0-5.64,4L132.6,154.1a6,6,0,0,0,5.64,8l27.29,0a6,6,0,0,0,5.69-4.1l25.24-75.52a6,6,0,0,0-5.7-7.9Zm-8.33,12c-4,11.92-19,57-21.22,63.5l-14.46,0,22.61-63.45Z"/>
          <polygon points="244.52 156.31 219.57 156.31 210.32 124.33 199.79 156.23 174.96 156.23 199.93 80.68 225.03 80.62 234.3 114.1 245.35 80.54 269.72 80.54 244.52 156.31"/>
          <path class="c324cce8-b95e-45b5-97dc-0c85c084b089" d="M245.35,74.54a6,6,0,0,0-5.7,4.12L234.8,93.41c-2-7-4-14.39-4-14.39a6,6,0,0,0-5.8-4.4l-25.09.06a6,6,0,0,0-5.69,4.11l-25,75.55a6,6,0,0,0,5.7,7.89h24.83a6,6,0,0,0,5.7-4.12l4.45-13.5L213.81,158a6,6,0,0,0,5.76,4.34h25a6,6,0,0,0,5.7-4.11l25.19-75.77a6,6,0,0,0-5.69-7.89Zm16,12c-4,11.9-19,57.23-21.2,63.77H224.08l-8-27.65a6,6,0,0,0-11.46-.21s-7.12,21.53-9.18,27.78H183.26l21-63.56,16.19,0c1.85,6.65,8.06,29.07,8.06,29.07A6,6,0,0,0,240,116l9.69-29.43Z"/>
          <polygon class="c324cce8-b95e-45b5-97dc-0c85c084b089" points="318.47 156.14 326.69 131.79 304.23 131.77 349.19 80.62 282.48 80.68 273.97 105.92 293.94 105.91 251.89 156.14 318.47 156.14"/>
          <path class="c324cce8-b95e-45b5-97dc-0c85c084b089" d="M349.18,74.62l-66.7.06a6,6,0,0,0-5.68,4.08L268.29,104a6,6,0,0,0,5.68,7.91h7.12l-33.8,40.37a6,6,0,0,0-1.4,3.86,6,6,0,0,0,6,6h66.58a6,6,0,0,0,5.69-4.08l8.21-24.35a6,6,0,0,0-5.68-7.92h-9.21l36.22-41.2a6,6,0,0,0-4.52-10Zm-13.26,12-36.2,41.18a6,6,0,0,0-1.49,4,6,6,0,0,0,6,6h14.11c-1.83,5.43-3,8.91-4.17,12.36H264.74l33.8-40.37a6,6,0,0,0-4.6-9.86H282.33l4.46-13.25Z"/>
          <polygon points="558.88 80.65 605.34 80.65 599 100.59 578.03 100.64 574.79 110.24 595.32 110.23 590.16 125.69 569.69 125.72 566.55 135.25 587.23 135.24 580.19 156.14 533.74 156.14 558.88 80.65"/>
          <path class="c324cce8-b95e-45b5-97dc-0c85c084b089" d="M558.87,74.65a6,6,0,0,0-5.69,4.11L528,154.24a6,6,0,0,0,5.7,7.9h46.45a6,6,0,0,0,5.69-4.09l7-20.89a6,6,0,0,0-.81-5.42c-.08-.12-.2-.2-.29-.31a6,6,0,0,0,4-3.84L601,112.13a6.2,6.2,0,0,0,.31-1.9,6,6,0,0,0-1.14-3.51,3.33,3.33,0,0,0-.25-.28,5.94,5.94,0,0,0,4.78-4l6.35-19.94a6,6,0,0,0-5.72-7.82Zm38.26,12c-1.2,3.79-1.69,5.32-2.52,7.95l-16.59,0a6,6,0,0,0-5.67,4.08l-3.24,9.61a6,6,0,0,0-.32,1.91,6.06,6.06,0,0,0,1.13,3.51,6,6,0,0,0,4.88,2.49H587l-1.16,3.47-16.15,0a6,6,0,0,0-5.69,4.13l-3.14,9.53a6,6,0,0,0,5.7,7.88h12.32c-1.41,4.18-2,6.09-3,8.89H542.06c4-11.89,19-57,21.14-63.49Z"/>
          <path d="M541.68,100c.44-14.73-14.38-23.2-30.18-22.75-24.82.72-51.92,14.58-56.68,49.12-2.31,58.16,62.82,31.52,77.83,6.82,4-6.54,7.12-13.26,7.79-19.91H498.13l-5.4,17.82h7.86a8.26,8.26,0,0,1-3.41,3.54c-22.15,11.42-13.64-28.44,5.45-30.77,4.25-.54,9.05,2.24,10.77,4.35A276.73,276.73,0,0,1,541.68,100Z"/>
          <path class="c324cce8-b95e-45b5-97dc-0c85c084b089" d="M511.33,71.27c-14.69.42-28.64,5.07-39.29,13.07-12.76,9.59-20.77,23.84-23.17,41.22,0,.19,0,.38-.05.58C447.7,154.6,462,163.21,470.58,165.8c22.05,6.65,55.94-11,67.2-29.49,5.21-8.58,8-15.71,8.62-22.42a6,6,0,0,0-6-6.6H537c2-.52,4-1,6-1.42a6,6,0,0,0,4.74-5.68c0-.28,0-.55,0-.83a24.88,24.88,0,0,0-7.48-17.93C533.52,74.74,522.73,70.94,511.33,71.27Zm.35,12c8.15-.23,15.64,2.25,20,6.65a13.24,13.24,0,0,1,3.32,5.5c-8,2-16,4.59-20.38,6-3.31-2.27-8-4.13-12.77-3.54-11.51,1.41-19.66,12.28-22.62,22.43-2.5,8.54-1.22,15.92,3.42,19.74,3,2.47,8.4,4.45,17.24-.1a14.21,14.21,0,0,0,6.13-6.42,6.09,6.09,0,0,0,.53-2.46,6,6,0,0,0-5.78-6c.87-2.87,1.13-3.71,1.77-5.84h30.25a59,59,0,0,1-5.31,10.79c-8.85,14.58-36.91,29.22-53.47,24.23-8.83-2.66-13.29-11-13.29-24.93,0-.79,0-1.6.05-2.43C465.24,95.71,490,83.89,511.68,83.26Z"/>
          <path class="c324cce8-b95e-45b5-97dc-0c85c084b089" d="M648.77,80.91H614.69l-25.05,75.27h24.24l7.53-22.27,3.24,22.28,24.69-.07-6.83-27.87s12.07-2.33,17.78-8.86C673.07,102.1,666.59,81.58,648.77,80.91Zm-11.88,31.45c-1.86.83-4.78.7-8.8.7,1.68-4.84,2.36-7.18,4.32-12C644.17,99.82,642.65,108.76,636.89,112.36Z"/>
          <path class="c324cce8-b95e-45b5-97dc-0c85c084b089" d="M609,79l-25,75.27a6,6,0,0,0,5.69,7.9h24.24a6,6,0,0,0,5.38-3.5,5.94,5.94,0,0,0,5.41,3.51l24.68-.07a6,6,0,0,0,6-6,5.76,5.76,0,0,0-.18-1.42s-3.67-15-5.43-22.22c4.67-1.58,10.95-4.42,15.08-9.13l.31-.39A38.08,38.08,0,0,0,673,100.6a27.78,27.78,0,0,0-2.67-12.12c-4-8.26-11.74-13.2-21.31-13.56H614.69A6,6,0,0,0,609,79Zm10,7.9h29.58c6.44.26,9.49,3.82,10.91,6.77a16,16,0,0,1,1.5,7,26,26,0,0,1-5.38,15c-3.61,3.94-11.48,6.22-14.26,6.76a6,6,0,0,0-4.84,5.9,5.69,5.69,0,0,0,.17,1.42s3,12.48,5,20.47l-11.86,0c-.89-6.09-2.49-17.13-2.49-17.13A6,6,0,0,0,615.73,132l-6.15,18.19H598C601.92,138.29,616.84,93.43,619,86.9Z"/>
          <path class="c324cce8-b95e-45b5-97dc-0c85c084b089" d="M631.8,95.05a6,6,0,0,0-4.95,3.73c-1.51,3.73-2.29,6-3.27,8.93l-1.15,3.38a6,6,0,0,0,5.66,8h1.48c3.89,0,7,0,9.76-1.22a4.73,4.73,0,0,0,.74-.39c5.67-3.54,8.46-10,6.65-15.24C645.86,99.69,642.67,93.94,631.8,95.05Z"/>
        </g>
        <g>
          <path d="M98.94,7c28.43-4.73,46.38,7.29,53.2,26.6,2.13,6,2.9,11.26,3.37,19.1C138.4,60,137.62,60,118.72,67.34c-1.34-9.78-6.27-16.34-10.87-19.41s-12.24-3.79-15-3.41c-25.92,3.58-57,53-41.61,83.9,2.13,4.29,7.31,8.89,12.28,10.23,20.29,5.48,33.45-11,38.61-23.84-9.85,0-25.65,0-25.65,0L85.3,80.68h68.21A117.68,117.68,0,0,1,146,105.23c-13.6,32.51-27.9,53.35-54.56,64.12-12.64,5.07-31.38,7.91-47.07,4.09-61.84-15.05-38-101.22-4.77-133C55.52,23.39,72.64,11.39,98.94,7Z"/>
          <path class="eaa26bee-5836-464e-a91c-23c7c15474ad" d="M386,17.21c31.25-1.12,20.21,49.65-4.09,53.89C347.13,77.13,355.08,18.3,386,17.21Z"/>
          <polygon class="eaa26bee-5836-464e-a91c-23c7c15474ad" points="434.5 161.16 409.3 161.16 400.71 131.15 390.83 161.3 363.55 161.24 390.34 80.65 417.06 80.65 425.35 111.09 435.42 80.68 461.27 80.68 434.5 161.16"/>
          <polygon class="eaa26bee-5836-464e-a91c-23c7c15474ad" points="381.6 80.19 346.74 185.29 320.25 185.23 355.26 80.19 381.6 80.19"/>
          <polygon points="165.12 80.65 190.77 80.62 165.53 156.14 138.25 156.11 165.12 80.65"/>
          <polygon points="244.52 156.31 219.57 156.31 210.32 124.33 199.79 156.23 174.96 156.23 199.93 80.65 225.03 80.62 234.3 114.1 245.35 80.54 269.72 80.54 244.52 156.31"/>
          <polygon points="318.47 156.14 326.69 131.79 304.23 131.77 349.19 80.62 282.48 80.65 273.97 105.92 293.94 105.91 251.89 156.14 318.47 156.14"/>
          <polygon points="558.88 80.65 605.34 80.65 599 100.59 578.03 100.64 574.79 110.24 595.32 110.23 590.16 125.69 569.69 125.72 566.55 135.25 587.23 135.24 580.19 156.14 533.74 156.14 558.88 80.65"/>
          <path d="M541.68,100c.44-14.73-14.38-23.2-30.18-22.75-24.82.72-51.92,14.58-56.68,49.12-2.31,58.16,62.82,31.52,77.83,6.82,4-6.54,7.12-13.26,7.79-19.91H498.13l-5.4,17.82h7.86a8.26,8.26,0,0,1-3.41,3.54c-22.15,11.42-13.64-28.44,5.45-30.77,4.25-.54,9.05,2.24,10.77,4.35A276.73,276.73,0,0,1,541.68,100Z"/>
        </g>
      </g>
    </g>
    <g id="949718f6-dc82-4658-8088-5d6dcbbdb036" data-name="Hinweise">
      <g>
        <g id="a41445db-4297-4ac7-86bd-9ea00b3d6688" data-name="Wirsind...">
          <g>
            <path class="eaa26bee-5836-464e-a91c-23c7c15474ad" d="M193,63.07a.61.61,0,0,1-.6-.57L191.65,50l-7.49,12.8a.59.59,0,0,1-.51.3h-6.57a.6.6,0,0,1-.6-.57l-1.31-24.88a.6.6,0,0,1,.16-.44.59.59,0,0,1,.43-.19h6.74a.61.61,0,0,1,.6.59l.33,14,8.15-14.3a.62.62,0,0,1,.52-.3h5.15a.6.6,0,0,1,.6.57l.82,14.06,7.7-14.31a.58.58,0,0,1,.52-.32h6.74a.6.6,0,0,1,.52.3.61.61,0,0,1,0,.6L200.08,62.76a.61.61,0,0,1-.52.31Z"/>
            <path class="c324cce8-b95e-45b5-97dc-0c85c084b089" d="M213.63,37.59h0m0,0L199.56,62.47H193l-.81-14.42h-.06l-8.44,14.42h-6.56l-1.32-24.88h6.74l.37,16.07h.07l9.16-16.07h5.15l.94,16.07h.07l8.63-16.07h6.74m0-1.2h-6.74a1.19,1.19,0,0,0-1,.63l-6.69,12.44-.7-11.94a1.2,1.2,0,0,0-1.2-1.13H192.1a1.2,1.2,0,0,0-1,.61L184,49.42l-.27-11.86a1.2,1.2,0,0,0-1.2-1.17h-6.74a1.25,1.25,0,0,0-.87.37,1.21,1.21,0,0,0-.32.89l1.31,24.88a1.2,1.2,0,0,0,1.2,1.14h6.56a1.2,1.2,0,0,0,1-.6L191.16,52l.6,10.54A1.2,1.2,0,0,0,193,63.67h6.61a1.21,1.21,0,0,0,1-.61l14-24.82a1.2,1.2,0,0,0-1-1.85Zm0,2.4Z"/>
          </g>
          <g>
            <path class="eaa26bee-5836-464e-a91c-23c7c15474ad" d="M208.51,63.07a.6.6,0,0,1-.47-.23.58.58,0,0,1-.11-.52l4.16-16.94a.61.61,0,0,1,.58-.45h6a.6.6,0,0,1,.48.23.61.61,0,0,1,.11.51l-4.17,16.94a.61.61,0,0,1-.58.46ZM216.44,43a3.18,3.18,0,0,1-2.58-1.19,3.39,3.39,0,0,1-.54-2.93,5.21,5.21,0,0,1,4.78-3.82,3.2,3.2,0,0,1,2.58,1.18,3.39,3.39,0,0,1,.54,2.93A5.22,5.22,0,0,1,216.44,43Z"/>
            <path class="c324cce8-b95e-45b5-97dc-0c85c084b089" d="M218.1,35.66A2.56,2.56,0,0,1,220.64,39a4.6,4.6,0,0,1-4.2,3.37A2.56,2.56,0,0,1,213.9,39a4.61,4.61,0,0,1,4.2-3.37m.57,9.87-4.16,16.94h-6l4.16-16.94h6m-.57-11.07a5.76,5.76,0,0,0-5.36,4.28,4,4,0,0,0,.65,3.44,3.84,3.84,0,0,0,3.05,1.42,5.77,5.77,0,0,0,5.37-4.29,4,4,0,0,0-.66-3.44,3.81,3.81,0,0,0-3.05-1.41Zm.57,9.87h-6a1.19,1.19,0,0,0-1.16.91l-4.17,16.94a1.2,1.2,0,0,0,1.17,1.49h6a1.2,1.2,0,0,0,1.16-.92l4.17-16.94a1.2,1.2,0,0,0-1.17-1.48Zm0,2.4h0Z"/>
          </g>
          <g>
            <path class="eaa26bee-5836-464e-a91c-23c7c15474ad" d="M218,63.07a.6.6,0,0,1-.47-.23.58.58,0,0,1-.11-.52l4.16-16.93a.61.61,0,0,1,.58-.46h6a.6.6,0,0,1,.47.23.58.58,0,0,1,.11.52l-.18.75a8.29,8.29,0,0,1,5.21-1.75h1.15a.6.6,0,0,1,.48.23.61.61,0,0,1,.11.51l-1.42,5.75a.57.57,0,0,1-.36.41.59.59,0,0,1-.22.05.67.67,0,0,1-.33-.1,3.57,3.57,0,0,0-2.07-.46c-2.59,0-4,1.4-4.85,4.71l-1.68,6.83a.59.59,0,0,1-.58.46Z"/>
            <path class="c324cce8-b95e-45b5-97dc-0c85c084b089" d="M234.9,45.28h0m0,0L233.49,51a4.1,4.1,0,0,0-2.4-.56c-3.34,0-4.7,2.21-5.43,5.17L224,62.47h-6l4.16-16.94h6l-.67,2.74h.07a7.73,7.73,0,0,1,6.21-3h1.15m0-1.2h-1.16a9,9,0,0,0-4.45,1.12,1.77,1.77,0,0,0-.21-.41,1.21,1.21,0,0,0-1-.46h-6a1.2,1.2,0,0,0-1.16.92l-4.17,16.93a1.26,1.26,0,0,0,.22,1,1.21,1.21,0,0,0,.95.46h6a1.2,1.2,0,0,0,1.16-.92l1.68-6.83c.75-3,2-4.25,4.27-4.25a3,3,0,0,1,1.75.36,1.16,1.16,0,0,0,.65.2,1.12,1.12,0,0,0,.44-.09,1.22,1.22,0,0,0,.73-.83l1.39-5.67a1.09,1.09,0,0,0,.06-.36,1.2,1.2,0,0,0-1.2-1.2Zm0,2.4h0Z"/>
          </g>
          <g>
            <path class="eaa26bee-5836-464e-a91c-23c7c15474ad" d="M248.81,63.62a11.37,11.37,0,0,1-6.72-2.06.6.6,0,0,1-.12-.85l3.21-4.2a.61.61,0,0,1,.41-.23h.07a.55.55,0,0,1,.38.15A7.07,7.07,0,0,0,250,58c.6,0,1.5-.29,1.63-.84,0-.17,0-.22,0-.25-.17-.27-1.06-.48-1.78-.64L248.73,56c-1.75-.5-4-1.57-3.09-5.19,1.09-4.45,5.58-6.44,9.54-6.44a12.36,12.36,0,0,1,5.58,1.14.6.6,0,0,1,.2.9L258,50.22a.59.59,0,0,1-.47.24.62.62,0,0,1-.32-.09,5.49,5.49,0,0,0-2.71-.74c-.59,0-1.49.26-1.6.7,0,.11,0,.14,0,.16.19.29,1.1.45,1.54.53l.35.07a5.46,5.46,0,0,1,3.77,2.17,4.52,4.52,0,0,1,.36,3.59C257.71,61.85,252.72,63.62,248.81,63.62Z"/>
            <path class="c324cce8-b95e-45b5-97dc-0c85c084b089" d="M255.18,45a11.75,11.75,0,0,1,5.31,1.08l-2.95,3.81a6.19,6.19,0,0,0-3-.83c-.7,0-2,.3-2.18,1.16-.28,1.16,1.57,1.32,2.35,1.49,2.67.56,4.45,1.88,3.68,5-1.1,4.46-5.61,6.31-9.55,6.31a10.79,10.79,0,0,1-6.37-2l3.22-4.2A7.56,7.56,0,0,0,250,58.6c.76,0,2-.37,2.21-1.29.33-1.33-1.55-1.4-3.32-1.89S245.47,54,246.22,51c1-4.15,5.24-6,9-6m0-1.2c-4.2,0-9,2.13-10.13,6.89-.75,3.06.43,5.05,3.52,5.91.38.11.77.2,1.14.28s.86.2,1.18.31a1.84,1.84,0,0,1-.89.24A6.4,6.4,0,0,1,246.43,56a1.17,1.17,0,0,0-.77-.29h-.13a1.2,1.2,0,0,0-.83.47l-3.21,4.19a1.22,1.22,0,0,0,.25,1.71,12,12,0,0,0,7.07,2.17c4.12,0,9.4-1.89,10.71-7.22a5.11,5.11,0,0,0-.43-4.06,6.05,6.05,0,0,0-4.16-2.44l-.36-.07-.62-.12a2,2,0,0,1,.56-.08,4.94,4.94,0,0,1,2.4.65,1.18,1.18,0,0,0,.63.18,1.22,1.22,0,0,0,.95-.47l2.94-3.81A1.18,1.18,0,0,0,261,45a12.84,12.84,0,0,0-5.85-1.21Z"/>
          </g>
          <g>
            <path class="eaa26bee-5836-464e-a91c-23c7c15474ad" d="M259.69,63.07a.61.61,0,0,1-.47-.23.58.58,0,0,1-.11-.52l4.16-16.94a.61.61,0,0,1,.58-.45h6a.6.6,0,0,1,.48.23.61.61,0,0,1,.11.51l-4.17,16.94a.59.59,0,0,1-.58.46ZM267.62,43A3.18,3.18,0,0,1,265,41.81a3.39,3.39,0,0,1-.54-2.93,5.21,5.21,0,0,1,4.78-3.82,3.19,3.19,0,0,1,2.58,1.18,3.39,3.39,0,0,1,.54,2.93A5.21,5.21,0,0,1,267.62,43Z"/>
            <path class="c324cce8-b95e-45b5-97dc-0c85c084b089" d="M269.28,35.66A2.56,2.56,0,0,1,271.82,39a4.6,4.6,0,0,1-4.2,3.37A2.56,2.56,0,0,1,265.08,39a4.61,4.61,0,0,1,4.2-3.37m.57,9.87-4.16,16.94h-6l4.16-16.94h6m-.57-11.07a5.76,5.76,0,0,0-5.36,4.28,4,4,0,0,0,.65,3.44,3.84,3.84,0,0,0,3.05,1.42A5.77,5.77,0,0,0,273,39.31a4,4,0,0,0-.66-3.44,3.8,3.8,0,0,0-3.05-1.41Zm.57,9.87h-6a1.19,1.19,0,0,0-1.16.91l-4.17,16.94a1.23,1.23,0,0,0,.23,1,1.18,1.18,0,0,0,.94.46h6a1.2,1.2,0,0,0,1.16-.92L271,45.81a1.18,1.18,0,0,0-.22-1,1.21,1.21,0,0,0-.95-.46Zm0,2.4h0Z"/>
          </g>
          <g>
            <path class="eaa26bee-5836-464e-a91c-23c7c15474ad" d="M281,63.07a.61.61,0,0,1-.47-.23.64.64,0,0,1-.11-.52l2.12-8.62c.24-.92.6-2.31.13-2.92a1.52,1.52,0,0,0-1.24-.41c-1.78,0-2.93,1.14-3.5,3.47l-2.16,8.77a.59.59,0,0,1-.58.46h-6a.61.61,0,0,1-.47-.23.58.58,0,0,1-.11-.52l4.16-16.93a.61.61,0,0,1,.58-.46h6a.63.63,0,0,1,.48.23.64.64,0,0,1,.11.52l-.08.32a7.87,7.87,0,0,1,5.08-1.63c2.13,0,3.68.6,4.61,1.79,1.05,1.34,1.25,3.36.61,6l-2.57,10.45a.61.61,0,0,1-.59.46Z"/>
            <path class="c324cce8-b95e-45b5-97dc-0c85c084b089" d="M284.91,45c4.55,0,5.66,2.88,4.63,7L287,62.47h-6l2-8.25c.4-1.61,1.36-4.45-1.6-4.45-2.43,0-3.56,1.82-4.08,3.93l-2.16,8.77h-6l4.16-16.94h6l-.53,2.19h.06A7.57,7.57,0,0,1,284.91,45m0-1.2a8.68,8.68,0,0,0-4.55,1.16l-.09-.14a1.21,1.21,0,0,0-.95-.46h-6a1.2,1.2,0,0,0-1.16.92L268,62.18a1.23,1.23,0,0,0,.23,1,1.18,1.18,0,0,0,.94.46h6a1.22,1.22,0,0,0,1.17-.92L278.48,54c.67-2.7,2-3,2.92-3a1.14,1.14,0,0,1,.77.18c.28.37-.07,1.74-.24,2.4l-.1.39-2,8.24A1.2,1.2,0,0,0,281,63.67h6a1.21,1.21,0,0,0,1.17-.92l2.57-10.45c.69-2.83.45-5-.72-6.51-1.05-1.34-2.76-2-5.08-2Z"/>
          </g>
          <g>
            <path class="eaa26bee-5836-464e-a91c-23c7c15474ad" d="M297.88,63.63a7,7,0,0,1-5.69-2.56A8.36,8.36,0,0,1,291,53.84c1.33-5.4,6.18-9.47,11.28-9.47a6.52,6.52,0,0,1,4.43,1.51L309.38,35a.59.59,0,0,1,.58-.46h6a.61.61,0,0,1,.47.23.59.59,0,0,1,.11.51l-6.73,27.38a.61.61,0,0,1-.58.46h-6a.6.6,0,0,1-.47-.23.58.58,0,0,1-.11-.52l0-.11A8.62,8.62,0,0,1,297.88,63.63Zm4.69-12.88a4.41,4.41,0,0,0-4.24,3.41,2.64,2.64,0,0,0,.29,2.28,2.51,2.51,0,0,0,2.06.8,4.31,4.31,0,0,0,4.23-3.37,2.65,2.65,0,0,0-.32-2.31A2.44,2.44,0,0,0,302.57,50.75Z"/>
            <path class="c324cce8-b95e-45b5-97dc-0c85c084b089" d="M316,35.09l-6.73,27.38h-6l.46-1.87h-.07A7.76,7.76,0,0,1,297.88,63c-5,0-7.51-4.17-6.32-9.05s5.68-9,10.7-9A5.42,5.42,0,0,1,307,47.16l3-12.07h6M300.68,57.84A4.92,4.92,0,0,0,305.5,54c.51-2.09-.48-3.86-2.93-3.86A5,5,0,0,0,297.74,54c-.53,2.17.49,3.83,2.94,3.83m15.28-24h-6a1.22,1.22,0,0,0-1.17.91l-2.47,10.05a7.56,7.56,0,0,0-4.06-1.08c-5.37,0-10.47,4.26-11.86,9.92a9,9,0,0,0,1.31,7.75,7.61,7.61,0,0,0,6.17,2.79,9.35,9.35,0,0,0,4.37-1.07l0,.05a1.21,1.21,0,0,0,1,.46h6a1.2,1.2,0,0,0,1.16-.92l6.73-27.37A1.2,1.2,0,0,0,316,33.89Zm0,2.4ZM300.68,56.64a2,2,0,0,1-1.59-.57,2.08,2.08,0,0,1-.18-1.77,3.81,3.81,0,0,1,3.66-2.95,1.94,1.94,0,0,1,1.55.58,2.12,2.12,0,0,1,.21,1.8,3.68,3.68,0,0,1-3.65,2.91Z"/>
          </g>
          <g>
            <path class="eaa26bee-5836-464e-a91c-23c7c15474ad" d="M316,63.68a3.58,3.58,0,0,1-2.89-1.32,3.79,3.79,0,0,1-.61-3.29,5.83,5.83,0,0,1,5.41-4.32,3.57,3.57,0,0,1,2.9,1.31,3.79,3.79,0,0,1,.6,3.3A5.91,5.91,0,0,1,316,63.68Z"/>
            <path class="c324cce8-b95e-45b5-97dc-0c85c084b089" d="M317.93,55.35a2.92,2.92,0,0,1,2.91,3.87A5.27,5.27,0,0,1,316,63.08a2.93,2.93,0,0,1-2.91-3.86,5.23,5.23,0,0,1,4.82-3.87m0-1.2a6.44,6.44,0,0,0-6,4.78,4.41,4.41,0,0,0,.72,3.8A4.15,4.15,0,0,0,316,64.28a6.44,6.44,0,0,0,6-4.78,4.39,4.39,0,0,0-.71-3.81,4.18,4.18,0,0,0-3.37-1.54Z"/>
          </g>
          <g>
            <path class="eaa26bee-5836-464e-a91c-23c7c15474ad" d="M326.85,63.68a3.59,3.59,0,0,1-2.9-1.32,3.82,3.82,0,0,1-.6-3.29,5.81,5.81,0,0,1,5.4-4.32,3.59,3.59,0,0,1,2.91,1.31,3.77,3.77,0,0,1,.59,3.3A5.9,5.9,0,0,1,326.85,63.68Z"/>
            <path class="c324cce8-b95e-45b5-97dc-0c85c084b089" d="M328.75,55.35a2.92,2.92,0,0,1,2.92,3.87,5.27,5.27,0,0,1-4.82,3.86,2.93,2.93,0,0,1-2.92-3.86,5.24,5.24,0,0,1,4.82-3.87m0-1.2a6.44,6.44,0,0,0-6,4.78,4.41,4.41,0,0,0,.72,3.8,4.17,4.17,0,0,0,3.37,1.55,6.43,6.43,0,0,0,6-4.78,4.42,4.42,0,0,0-.7-3.81,4.2,4.2,0,0,0-3.38-1.54Z"/>
          </g>
          <g>
            <path class="eaa26bee-5836-464e-a91c-23c7c15474ad" d="M337.67,63.68a3.57,3.57,0,0,1-2.89-1.32,3.79,3.79,0,0,1-.61-3.29,5.82,5.82,0,0,1,5.4-4.32,3.59,3.59,0,0,1,2.91,1.31,3.79,3.79,0,0,1,.6,3.3A5.91,5.91,0,0,1,337.67,63.68Z"/>
            <path class="c324cce8-b95e-45b5-97dc-0c85c084b089" d="M339.57,55.35a2.92,2.92,0,0,1,2.92,3.87,5.27,5.27,0,0,1-4.82,3.86,2.93,2.93,0,0,1-2.92-3.86,5.24,5.24,0,0,1,4.82-3.87m0-1.2a6.44,6.44,0,0,0-6,4.78,4.4,4.4,0,0,0,.71,3.8,4.17,4.17,0,0,0,3.37,1.55,6.44,6.44,0,0,0,6-4.78,4.43,4.43,0,0,0-.71-3.81,4.19,4.19,0,0,0-3.38-1.54Z"/>
          </g>
        </g>
        <text></text>
        <text class="caf6e9f7-7edb-40bc-ac0e-9d8c68a2637e" transform="matrix(0.98, 0, -0.31, 0.95, 665.05, 156.14)">Fahrrad</text>
      </g>
    </g>
  </g>
</svg>
